<?xml version="1.0" encoding="UTF-8" standalone="no"?>
<!-- Created with Inkscape (http://www.inkscape.org/) -->

<svg
   xmlns:dc="http://purl.org/dc/elements/1.1/"
   xmlns:cc="http://creativecommons.org/ns#"
   xmlns:rdf="http://www.w3.org/1999/02/22-rdf-syntax-ns#"
   xmlns:svg="http://www.w3.org/2000/svg"
   xmlns="http://www.w3.org/2000/svg"
   xmlns:sodipodi="http://sodipodi.sourceforge.net/DTD/sodipodi-0.dtd"
   xmlns:inkscape="http://www.inkscape.org/namespaces/inkscape"
   id="svg6816"
   version="1.1"
   inkscape:version="0.48.5 r10040"
   width="508.28546"
   height="382.42612"
   xml:space="preserve"
   sodipodi:docname="figure-4.4.pdf"><metadata
     id="metadata6822"><rdf:RDF><cc:Work
         rdf:about=""><dc:format>image/svg+xml</dc:format><dc:type
           rdf:resource="http://purl.org/dc/dcmitype/StillImage" /><dc:title></dc:title></cc:Work></rdf:RDF></metadata><defs
     id="defs6820"><clipPath
       clipPathUnits="userSpaceOnUse"
       id="clipPath6832"><path
         d="M 9,9 603,9 603,783 9,783 9,9 z"
         id="path6834"
         inkscape:connector-curvature="0" /></clipPath><clipPath
       clipPathUnits="userSpaceOnUse"
       id="clipPath7986"><path
         d="m 0,515.28 612,0 0,-303 -612,0 0,303 z"
         clip-rule="evenodd"
         id="path7988"
         inkscape:connector-curvature="0" /></clipPath><clipPath
       clipPathUnits="userSpaceOnUse"
       id="clipPath7992"><path
         d="m 0,792.03 612,0 0,-792 -612,0 0,792 z"
         id="path7994"
         inkscape:connector-curvature="0" /></clipPath><clipPath
       clipPathUnits="userSpaceOnUse"
       id="clipPath7998"><path
         d="M 9,9 603,9 603,783 9,783 9,9 z"
         id="path8000"
         inkscape:connector-curvature="0" /></clipPath><clipPath
       clipPathUnits="userSpaceOnUse"
       id="clipPath8008"><path
         d="M 9,9 603,9 603,783 9,783 9,9 z"
         id="path8010"
         inkscape:connector-curvature="0" /></clipPath></defs><sodipodi:namedview
     pagecolor="#ffffff"
     bordercolor="#666666"
     borderopacity="1"
     objecttolerance="10"
     gridtolerance="10"
     guidetolerance="10"
     inkscape:pageopacity="0"
     inkscape:pageshadow="2"
     inkscape:window-width="1048"
     inkscape:window-height="841"
     id="namedview6818"
     showgrid="false"
     fit-margin-top="0"
     fit-margin-left="0"
     fit-margin-right="0"
     fit-margin-bottom="0"
     inkscape:zoom="0.55"
     inkscape:cx="270.01047"
     inkscape:cy="214.575"
     inkscape:window-x="0"
     inkscape:window-y="0"
     inkscape:window-maximized="0"
     inkscape:current-layer="g6824" /><g
     id="g6824"
     inkscape:groupmode="layer"
     inkscape:label="figure-4.4"
     transform="matrix(1.25,0,0,-1.25,-112.48953,662.8511)"><text
       transform="scale(1,-1)"
       id="text7254"
       x="90.170189"
       y="-623.2196"><tspan
         style="font-size:10.97999954px;font-variant:normal;font-weight:normal;writing-mode:lr-tb;fill:#000000;fill-opacity:1;fill-rule:nonzero;stroke:none;font-family:Symbol;-inkscape-font-specification:SymbolMT"
         x="90.170189"
         y="-623.2196"
         id="tspan7256"></tspan></text>
<text
       transform="scale(1,-1)"
       id="text7410"
       x="90.178284"
       y="-581.76062"><tspan
         style="font-size:10.97999954px;font-variant:normal;font-weight:normal;writing-mode:lr-tb;fill:#000000;fill-opacity:1;fill-rule:nonzero;stroke:none;font-family:Symbol;-inkscape-font-specification:SymbolMT"
         x="90.178284"
         y="-581.76062"
         id="tspan7412"></tspan></text>
<text
       transform="scale(1,-1)"
       id="text7534"
       x="90.172791"
       y="-555.78082"><tspan
         style="font-size:10.97999954px;font-variant:normal;font-weight:normal;writing-mode:lr-tb;fill:#000000;fill-opacity:1;fill-rule:nonzero;stroke:none;font-family:Symbol;-inkscape-font-specification:SymbolMT"
         x="90.172791"
         y="-555.78082"
         id="tspan7536"></tspan></text>
<text
       transform="scale(1,-1)"
       id="text7578"
       x="89.991623"
       y="-530.28088"><tspan
         style="font-size:10.97999954px;font-variant:normal;font-weight:normal;writing-mode:lr-tb;fill:#000000;fill-opacity:1;fill-rule:nonzero;stroke:none;font-family:Calibri;-inkscape-font-specification:Calibri"
         x="89.991623"
         y="-530.28088"
         id="tspan7580"> </tspan></text>
<text
       transform="scale(1,-1)"
       id="text7582"
       x="496.55139"
       y="-224.34081"><tspan
         style="font-size:10.97999954px;font-variant:normal;font-weight:normal;writing-mode:lr-tb;fill:#000000;fill-opacity:1;fill-rule:nonzero;stroke:none;font-family:Calibri;-inkscape-font-specification:Calibri"
         x="496.55139"
         y="-224.34081"
         id="tspan7584"> </tspan></text>
<g
       id="g7990"
       clip-path="url(#clipPath7992)"><g
         id="g7996"
         clip-path="url(#clipPath7998)"><path
           d="m 97.44,224.34 399.18,0 0,290.88 -399.18,0 0,-290.88 z"
           style="fill:#ffffff;fill-opacity:1;fill-rule:nonzero;stroke:none"
           id="path8002"
           inkscape:connector-curvature="0" /></g></g><g
       id="g8012"
       transform="translate(134.94,261.48)"><path
         d="M 0,0 0,45.06"
         style="fill:none;stroke:#000000;stroke-width:0.72100002;stroke-linecap:round;stroke-linejoin:round;stroke-miterlimit:10;stroke-opacity:1;stroke-dasharray:none"
         id="path8014"
         inkscape:connector-curvature="0" /></g><g
       id="g8016"
       transform="translate(292.86,261.48)"><path
         d="M 0,0 0,45.06"
         style="fill:none;stroke:#000000;stroke-width:0.72100002;stroke-linecap:round;stroke-linejoin:round;stroke-miterlimit:10;stroke-opacity:1;stroke-dasharray:none"
         id="path8018"
         inkscape:connector-curvature="0" /></g><g
       id="g8020"
       transform="translate(211.68,261.48)"><path
         d="M 0,0 0,45.06"
         style="fill:none;stroke:#000000;stroke-width:0.72100002;stroke-linecap:round;stroke-linejoin:round;stroke-miterlimit:10;stroke-opacity:1;stroke-dasharray:none"
         id="path8022"
         inkscape:connector-curvature="0" /></g><path
       d="m 261.24,459.72 144.36,0 0,45.06 -144.36,0 0,-45.06 z"
       style="fill:#9a9a9a;fill-opacity:1;fill-rule:nonzero;stroke:none"
       id="path8024"
       inkscape:connector-curvature="0" /><path
       d="m 252.24,468.72 144.3,0 0,45.06 -144.3,0 0,-45.06 z"
       style="fill:#ffffff;fill-opacity:1;fill-rule:evenodd;stroke:#000000;stroke-width:0.72100002;stroke-linecap:round;stroke-linejoin:round;stroke-miterlimit:10;stroke-opacity:1;stroke-dasharray:none"
       id="path8026"
       inkscape:connector-curvature="0" /><text
       transform="scale(1.0517304,-0.950814)"
       id="text8028"
       x="253.86734"
       y="-520.41724"
       style="font-size:11.4097681px"><tspan
         style="font-size:11.41043377px;font-variant:normal;font-weight:normal;writing-mode:lr-tb;fill:#000000;fill-opacity:1;fill-rule:nonzero;stroke:none;font-family:Times New Roman;-inkscape-font-specification:TimesNewRomanPSMT"
         x="253.86734 260.88589 264.65247 269.68561 275.35776 279.76331 288.72165 291.91772 295.11377 298.30984 303.34299 306.53903 309.41562 317.62085 322.65399 327.68713 333.45053 338.4837 342.25027 345.12683 351.43796 354.63403 357.88712"
         y="-520.41724"
         sodipodi:role="line"
         id="tspan8030">Transmittal Header File</tspan></text>
<text
       transform="scale(1.0517304,-0.950814)"
       id="text8032"
       x="285.92841"
       y="-505.20944"
       style="font-size:11.4097681px"><tspan
         style="font-size:11.41043377px;font-variant:normal;font-weight:normal;writing-mode:lr-tb;fill:#000000;fill-opacity:1;fill-rule:nonzero;stroke:none;font-family:Times New Roman;-inkscape-font-specification:TimesNewRomanPSMT"
         x="285.92841 289.72809 295.43329 301.13852 304.31061 307.56372 313.26895 318.97415 324.04041 327.21249"
         y="-505.20944"
         sodipodi:role="line"
         id="tspan8034">(optional)</tspan></text>
<path
       d="m 153,333.54 144.36,0 0,45.06 -144.36,0 0,-45.06 z"
       style="fill:#9a9a9a;fill-opacity:1;fill-rule:nonzero;stroke:none"
       id="path8036"
       inkscape:connector-curvature="0" /><path
       d="m 144,342.54 144.3,0 0,45.06 -144.3,0 0,-45.06 z"
       style="fill:#ffffff;fill-opacity:1;fill-rule:evenodd;stroke:#000000;stroke-width:0.72100002;stroke-linecap:round;stroke-linejoin:round;stroke-miterlimit:10;stroke-opacity:1;stroke-dasharray:none"
       id="path8038"
       inkscape:connector-curvature="0" /><text
       transform="scale(1.0517304,-0.950814)"
       id="text8040"
       x="173.94191"
       y="-387.7099"
       style="font-size:11.4097681px"><tspan
         style="font-size:11.41043377px;font-variant:normal;font-weight:normal;writing-mode:lr-tb;fill:#000000;fill-opacity:1;fill-rule:nonzero;stroke:none;font-family:Times New Roman;-inkscape-font-specification:TimesNewRomanPSMT"
         x="173.94191 184.12344 189.14517 192.35493 197.37666 203.11954 208.22342 211.43317 216.45491 219.30751 225.58096 228.77704 231.98679"
         y="-387.7099"
         sodipodi:role="line"
         id="tspan8042">Metadata File</tspan></text>
<text
       transform="scale(1.0517304,-0.950814)"
       id="text8044"
       x="183.01324"
       y="-372.56488"
       style="font-size:11.4097681px"><tspan
         style="font-size:11.41043377px;font-variant:normal;font-weight:normal;writing-mode:lr-tb;fill:#000000;fill-opacity:1;fill-rule:nonzero;stroke:none;font-family:Times New Roman;-inkscape-font-specification:TimesNewRomanPSMT"
         x="183.01324 186.82091 192.53412 198.24731 201.42741 204.6075 210.32069 216.03391 221.10812 224.28821"
         y="-372.56488"
         sodipodi:role="line"
         id="tspan8046">(optional)</tspan></text>
<path
       d="m 107.88,225.42 63.18,0 0,45.06 -63.18,0 0,-45.06 z"
       style="fill:#9a9a9a;fill-opacity:1;fill-rule:nonzero;stroke:none"
       id="path8048"
       inkscape:connector-curvature="0" /><path
       d="m 98.88,234.42 63.12,0 0,45.06 -63.12,0 0,-45.06 z"
       style="fill:#ffffff;fill-opacity:1;fill-rule:evenodd;stroke:#000000;stroke-width:0.72100002;stroke-linecap:round;stroke-linejoin:round;stroke-miterlimit:10;stroke-opacity:1;stroke-dasharray:none"
       id="path8050"
       inkscape:connector-curvature="0" /><text
       transform="scale(1.0517304,-0.950814)"
       id="text8052"
       x="98.694496"
       y="-266.42444"
       style="font-size:11.4097681px"><tspan
         style="font-size:11.41043377px;font-variant:normal;font-weight:normal;writing-mode:lr-tb;fill:#000000;fill-opacity:1;fill-rule:nonzero;stroke:none;font-family:Times New Roman;-inkscape-font-specification:TimesNewRomanPSMT"
         x="98.694496 106.95336 111.9751 115.16774 120.18947 123.04208 129.31554 132.56979 135.76242 140.78416 143.63676"
         y="-266.42444"
         sodipodi:role="line"
         id="tspan8054">Data File 1</tspan></text>
<path
       d="m 189.06,225.42 63.18,0 0,45.06 -63.18,0 0,-45.06 z"
       style="fill:#9a9a9a;fill-opacity:1;fill-rule:nonzero;stroke:none"
       id="path8056"
       inkscape:connector-curvature="0" /><path
       d="m 180.06,234.42 63.18,0 0,45.06 -63.18,0 0,-45.06 z"
       style="fill:#ffffff;fill-opacity:1;fill-rule:evenodd;stroke:#000000;stroke-width:0.72100002;stroke-linecap:round;stroke-linejoin:round;stroke-miterlimit:10;stroke-opacity:1;stroke-dasharray:none"
       id="path8058"
       inkscape:connector-curvature="0" /><text
       transform="scale(1.0517304,-0.950814)"
       id="text8060"
       x="175.88158"
       y="-266.42444"
       style="font-size:11.4097681px"><tspan
         style="font-size:11.41043377px;font-variant:normal;font-weight:normal;writing-mode:lr-tb;fill:#000000;fill-opacity:1;fill-rule:nonzero;stroke:none;font-family:Times New Roman;-inkscape-font-specification:TimesNewRomanPSMT"
         x="175.88158 184.13702 189.15875 192.34798 197.36971 200.22231 206.58363 209.77284 212.96207 217.9838 220.8364"
         y="-266.42444"
         sodipodi:role="line"
         id="tspan8062">Data File 2</tspan></text>
<path
       d="m 270.3,225.42 63.12,0 0,45.06 -63.12,0 0,-45.06 z"
       style="fill:#9a9a9a;fill-opacity:1;fill-rule:nonzero;stroke:none"
       id="path8064"
       inkscape:connector-curvature="0" /><path
       d="m 261.24,234.42 63.18,0 0,45.06 -63.18,0 0,-45.06 z"
       style="fill:#ffffff;fill-opacity:1;fill-rule:evenodd;stroke:#000000;stroke-width:0.72100002;stroke-linecap:round;stroke-linejoin:round;stroke-miterlimit:10;stroke-opacity:1;stroke-dasharray:none"
       id="path8066"
       inkscape:connector-curvature="0" /><text
       transform="scale(1.0517304,-0.950814)"
       id="text8068"
       x="253.06865"
       y="-266.42444"
       style="font-size:11.4097681px"><tspan
         style="font-size:11.41043377px;font-variant:normal;font-weight:normal;writing-mode:lr-tb;fill:#000000;fill-opacity:1;fill-rule:nonzero;stroke:none;font-family:Times New Roman;-inkscape-font-specification:TimesNewRomanPSMT"
         x="253.06865 261.3241 266.34583 269.53506 274.55679 277.40939 283.77072 286.95993 290.14914 295.17087 298.02347"
         y="-266.42444"
         sodipodi:role="line"
         id="tspan8070">Data File 3</tspan></text>
<g
       id="g8072"
       transform="translate(324.42,468.72)"><path
         d="M 0,0 0,-72.06"
         style="fill:none;stroke:#000000;stroke-width:0.72100002;stroke-linecap:round;stroke-linejoin:round;stroke-miterlimit:10;stroke-opacity:1;stroke-dasharray:none"
         id="path8074"
         inkscape:connector-curvature="0" /></g><g
       id="g8076"
       transform="translate(216.12,387.6)"><path
         d="m 0,0 0,45.06 225.54,0 0,-36"
         style="fill:none;stroke:#000000;stroke-width:0.72100002;stroke-linecap:round;stroke-linejoin:round;stroke-miterlimit:10;stroke-opacity:1;stroke-dasharray:none"
         id="path8078"
         inkscape:connector-curvature="0" /></g><g
       id="g8080"
       transform="translate(324.42,387.6)"><path
         d="m 0,0 9,-9 36.06,0 9.06,-9 9,9 45.12,0 9,9"
         style="fill:none;stroke:#808080;stroke-width:2.16199994;stroke-linecap:round;stroke-linejoin:round;stroke-miterlimit:10;stroke-opacity:1;stroke-dasharray:none"
         id="path8082"
         inkscape:connector-curvature="0" /></g><text
       transform="scale(1.0517304,-0.950814)"
       id="text8084"
       x="327.97379"
       y="-370.67188"
       style="font-size:11.4097681px"><tspan
         style="font-size:11.41043377px;font-variant:normal;font-weight:normal;writing-mode:lr-tb;fill:#000000;fill-opacity:1;fill-rule:nonzero;stroke:none;font-family:Times New Roman;-inkscape-font-specification:TimesNewRomanPSMT"
         x="327.97379 336.23151 339.423 345.14761 350.16934 353.93481 356.78741 365.04514 370.06686 373.25836 378.28009 381.13272 387.57733 392.59906 395.79056"
         y="-370.67188"
         sodipodi:role="line"
         id="tspan8086">Other Data Sets</tspan></text>
<g
       id="g8088"
       transform="translate(216.12,342.54)"><path
         d="M 0,0 0,-36"
         style="fill:none;stroke:#000000;stroke-width:0.72100002;stroke-linecap:round;stroke-linejoin:round;stroke-miterlimit:10;stroke-opacity:1;stroke-dasharray:none"
         id="path8090"
         inkscape:connector-curvature="0" /></g><g
       id="g8092"
       transform="translate(134.94,306.54)"><path
         d="m 0,0 324.78,0 0,-57.12"
         style="fill:none;stroke:#000000;stroke-width:0.72100002;stroke-linecap:round;stroke-linejoin:round;stroke-miterlimit:10;stroke-opacity:1;stroke-dasharray:none"
         id="path8094"
         inkscape:connector-curvature="0" /></g><path
       d="m 432.66,225.42 63.12,0 0,45.06 -63.12,0 0,-45.06 z"
       style="fill:#9a9a9a;fill-opacity:1;fill-rule:nonzero;stroke:none"
       id="path8096"
       inkscape:connector-curvature="0" /><path
       d="m 423.6,234.42 63.18,0 0,45.06 -63.18,0 0,-45.06 z"
       style="fill:#ffffff;fill-opacity:1;fill-rule:evenodd;stroke:#000000;stroke-width:0.72100002;stroke-linecap:round;stroke-linejoin:round;stroke-miterlimit:10;stroke-opacity:1;stroke-dasharray:none"
       id="path8098"
       inkscape:connector-curvature="0" /><text
       transform="scale(1.0517304,-0.950814)"
       id="text8100"
       x="407.44281"
       y="-266.42444"
       style="font-size:11.4097681px"><tspan
         style="font-size:11.41043377px;font-variant:normal;font-weight:normal;writing-mode:lr-tb;fill:#000000;fill-opacity:1;fill-rule:nonzero;stroke:none;font-family:Times New Roman;-inkscape-font-specification:TimesNewRomanPSMT"
         x="407.44281 415.69827 420.72 423.90921 428.93094 431.78354 438.14487 441.33408 444.52332 449.54504 452.39764"
         y="-266.42444"
         sodipodi:role="line"
         id="tspan8102">Data File n</tspan></text>
<text
       transform="scale(1.0591461,-0.94415679)"
       id="text8104"
       x="341.36932"
       y="-268.04871"
       style="font-size:11.32988167px"><tspan
         style="font-size:17.08593369px;font-variant:normal;font-weight:bold;writing-mode:lr-tb;fill:#000000;fill-opacity:1;fill-rule:nonzero;stroke:none;font-family:Arial;-inkscape-font-specification:Arial-BoldMT"
         x="341.36932 346.14142 355.68564 360.45773 370.00192"
         y="-268.04871"
         sodipodi:role="line"
         id="tspan8106">. . .</tspan></text>
</g></svg>