<?xml version="1.0" encoding="UTF-8" standalone="no"?>
<!-- Created with Inkscape (http://www.inkscape.org/) -->

<svg
   xmlns:dc="http://purl.org/dc/elements/1.1/"
   xmlns:cc="http://creativecommons.org/ns#"
   xmlns:rdf="http://www.w3.org/1999/02/22-rdf-syntax-ns#"
   xmlns:svg="http://www.w3.org/2000/svg"
   xmlns="http://www.w3.org/2000/svg"
   xmlns:sodipodi="http://sodipodi.sourceforge.net/DTD/sodipodi-0.dtd"
   xmlns:inkscape="http://www.inkscape.org/namespaces/inkscape"
   id="svg6023"
   version="1.1"
   inkscape:version="0.48.5 r10040"
   width="513.74988"
   height="353.10016"
   xml:space="preserve"
   sodipodi:docname="figure-3-3.pdf"><metadata
     id="metadata6029"><rdf:RDF><cc:Work
         rdf:about=""><dc:format>image/svg+xml</dc:format><dc:type
           rdf:resource="http://purl.org/dc/dcmitype/StillImage" /><dc:title></dc:title></cc:Work></rdf:RDF></metadata><defs
     id="defs6027"><clipPath
       clipPathUnits="userSpaceOnUse"
       id="clipPath6039"><path
         d="M 9,9 603,9 603,783 9,783 9,9 z"
         id="path6041"
         inkscape:connector-curvature="0" /></clipPath><clipPath
       clipPathUnits="userSpaceOnUse"
       id="clipPath6221"><path
         d="m 0,720 612,0 0,-268.92 -612,0 L 0,720 z"
         clip-rule="evenodd"
         id="path6223"
         inkscape:connector-curvature="0" /></clipPath><clipPath
       clipPathUnits="userSpaceOnUse"
       id="clipPath6227"><path
         d="m 0,792.03 612,0 0,-792 -612,0 0,792 z"
         id="path6229"
         inkscape:connector-curvature="0" /></clipPath><clipPath
       clipPathUnits="userSpaceOnUse"
       id="clipPath6233"><path
         d="M 9,9 603,9 603,783 9,783 9,9 z"
         id="path6235"
         inkscape:connector-curvature="0" /></clipPath><clipPath
       clipPathUnits="userSpaceOnUse"
       id="clipPath6243"><path
         d="M 9,9 603,9 603,783 9,783 9,9 z"
         id="path6245"
         inkscape:connector-curvature="0" /></clipPath></defs><sodipodi:namedview
     pagecolor="#ffffff"
     bordercolor="#666666"
     borderopacity="1"
     objecttolerance="10"
     gridtolerance="10"
     guidetolerance="10"
     inkscape:pageopacity="0"
     inkscape:pageshadow="2"
     inkscape:window-width="1135"
     inkscape:window-height="790"
     id="namedview6025"
     showgrid="false"
     fit-margin-top="0"
     fit-margin-left="0"
     fit-margin-right="0"
     fit-margin-bottom="0"
     inkscape:zoom="0.55981979"
     inkscape:cx="270"
     inkscape:cy="-83.85"
     inkscape:window-x="0"
     inkscape:window-y="0"
     inkscape:window-maximized="0"
     inkscape:current-layer="g6031" /><g
     id="g6031"
     inkscape:groupmode="layer"
     inkscape:label="figure-3-3"
     transform="matrix(1.25,0,0,-1.25,-112.5,931.95015)"><text
       transform="scale(1,-1)"
       id="text6043"
       x="90"
       y="-745.56012"><tspan
         style="font-size:10.97999954px;font-variant:normal;font-weight:normal;writing-mode:lr-tb;fill:#000000;fill-opacity:1;fill-rule:nonzero;stroke:none;font-family:Calibri;-inkscape-font-specification:Calibri"
         x="90"
         y="-745.56012"
         id="tspan6045"> </tspan></text>
<text
       transform="scale(1,-1)"
       id="text6161"
       x="500.99991"
       y="-463.20001"><tspan
         style="font-size:10.97999954px;font-variant:normal;font-weight:normal;writing-mode:lr-tb;fill:#000000;fill-opacity:1;fill-rule:nonzero;stroke:none;font-family:Calibri;-inkscape-font-specification:Calibri"
         x="500.99991"
         y="-463.20001"
         id="tspan6163"> </tspan></text>
<g
       id="g6225"
       clip-path="url(#clipPath6227)"><g
         id="g6231"
         clip-path="url(#clipPath6233)"><path
           d="m 90,463.08 410.7,0 0,256.92 -410.7,0 0,-256.92 z"
           style="fill:#ffffff;fill-opacity:1;fill-rule:nonzero;stroke:none"
           id="path6237"
           inkscape:connector-curvature="0" /></g></g><text
       transform="scale(1.0484596,-0.95378016)"
       id="text6247"
       x="206.07375"
       y="-563.84064"
       style="font-size:11.44536209px"><tspan
         style="font-size:9.43393517px;font-variant:normal;font-weight:normal;writing-mode:lr-tb;fill:#000000;fill-opacity:1;fill-rule:nonzero;stroke:none;font-family:Times New Roman;-inkscape-font-specification:TimesNewRomanPSMT"
         x="206.07375 212.93504 217.17371 220.83691 225.07558 228.26707 230.93971 235.70668 238.3793 241.05194 245.81891 250.51041 252.90945 255.99718 260.80188 263.99338 266.39243 270.6311 274.86978 279.10843 283.8754 286.27444 289.36218 291.99707 296.23575 298.90839 303.67535 306.0744 308.74704"
         y="-563.84064"
         sodipodi:role="line"
         id="tspan6249">Description for each field in</tspan></text>
<text
       transform="scale(1.0484596,-0.95378016)"
       id="text6251"
       x="209.85109"
       y="-551.19629"
       style="font-size:11.44536209px"><tspan
         style="font-size:9.43393517px;font-variant:normal;font-weight:normal;writing-mode:lr-tb;fill:#000000;fill-opacity:1;fill-rule:nonzero;stroke:none;font-family:Times New Roman;-inkscape-font-specification:TimesNewRomanPSMT"
         x="209.85109 212.4926 217.22842 221.43596 223.84161 226.93594 229.57745 232.21895 236.5114 238.88875 241.2944 245.50194 249.1906 251.59625 255.28493 260.09622 264.30377 268.51129 271.1528 274.24713 276.87921 281.17163 285.98294 288.38861 291.03009 295.76593 298.1716 300.81311 305.54892"
         y="-551.19629"
         sodipodi:role="line"
         id="tspan6253">the file, as specified in the</tspan></text>
<text
       transform="scale(1.0484596,-0.95378016)"
       id="text6255"
       x="208.36339"
       y="-538.61523"
       style="font-size:11.44536209px"><tspan
         style="font-size:9.43393517px;font-variant:normal;font-weight:normal;writing-mode:lr-tb;fill:#000000;fill-opacity:1;fill-rule:nonzero;stroke:none;font-family:Times New Roman;-inkscape-font-specification:TimesNewRomanPSMT"
         x="208.36339 213.05583 217.286 221.51617 226.27466 230.50484 233.68784 236.08783 240.94443 244.12744 246.79158 251.02176 258.23306 261.89719 264.29718 266.96133 271.65378"
         y="-538.61523"
         sodipodi:role="line"
         id="tspan6257">header. Items in </tspan></text>
<text
       transform="scale(1.046518,-0.95554971)"
       id="text6259"
       x="274.625"
       y="-537.61725"
       style="font-size:11.4665966px"><tspan
         style="font-size:9.41646481px;font-variant:normal;font-weight:bold;writing-mode:lr-tb;fill:#000000;fill-opacity:1;fill-rule:nonzero;stroke:none;font-family:Times New Roman;-inkscape-font-specification:TimesNewRomanPS-BoldMT"
         x="274.625 281.05832 285.9191 288.55759"
         y="-537.61725"
         sodipodi:role="line"
         id="tspan6261">Bold</tspan></text>
<text
       transform="scale(1.0484596,-0.95378016)"
       id="text6263"
       x="295.69116"
       y="-538.61469"
       style="font-size:11.44536209px"><tspan
         style="font-size:9.43393517px;font-variant:normal;font-weight:normal;writing-mode:lr-tb;fill:#000000;fill-opacity:1;fill-rule:nonzero;stroke:none;font-family:Times New Roman;-inkscape-font-specification:TimesNewRomanPSMT"
         x="295.69116 298.90625 303.60248 308.39301"
         y="-538.61469"
         sodipodi:role="line"
         id="tspan6265">(not</tspan></text>
<text
       transform="scale(1.0484596,-0.95378016)"
       id="text6267"
       x="210.19426"
       y="-526.03357"
       style="font-size:11.44536209px"><tspan
         style="font-size:9.43393517px;font-variant:normal;font-weight:normal;writing-mode:lr-tb;fill:#000000;fill-opacity:1;fill-rule:nonzero;stroke:none;font-family:Times New Roman;-inkscape-font-specification:TimesNewRomanPSMT"
         x="210.19426 213.85558 218.54518 223.3197 229.9527 234.6423 237.90739 240.31398 244.5602 247.75925 252.00546 254.41206 258.65826 263.4328 270.64127 277.84973 282.71857 287.4082 289.81479 292.49496 297.26947 299.67609 303.9223 306.60248"
         y="-526.03357"
         sodipodi:role="line"
         id="tspan6269">shown) are common to all</tspan></text>
<text
       transform="scale(1.0484596,-0.95378016)"
       id="text6271"
       x="206.98956"
       y="-513.45251"
       style="font-size:11.44536209px"><tspan
         style="font-size:9.43393517px;font-variant:normal;font-weight:normal;writing-mode:lr-tb;fill:#000000;fill-opacity:1;fill-rule:nonzero;stroke:none;font-family:Times New Roman;-inkscape-font-specification:TimesNewRomanPSMT"
         x="206.98956 213.8452 218.60651 225.46214 231.87439 237.68288 240.08569 243.27153 247.50453 251.16208 253.79132 258.02432 261.21014 263.61298 268.3743 272.6073 275.27426 279.56387 281.96671 285.62424 289.85724 292.52423 296.18176 298.58456 302.8176 307.51285"
         y="-513.45251"
         sodipodi:role="line"
         id="tspan6273">DoDBL raster data sets and</tspan></text>
<text
       transform="scale(1.0484596,-0.95378016)"
       id="text6275"
       x="216.60367"
       y="-500.8714"
       style="font-size:11.44536209px"><tspan
         style="font-size:9.43393517px;font-variant:normal;font-weight:normal;writing-mode:lr-tb;fill:#000000;fill-opacity:1;fill-rule:nonzero;stroke:none;font-family:Times New Roman;-inkscape-font-specification:TimesNewRomanPSMT"
         x="216.60367 220.26497 225.06779 229.29514 233.52249 236.18379 239.36398 243.94038 246.34697 249.00829 253.69789 257.92523 260.33185 264.5592 268.78653 271.44785 276.13745 280.37424 283.03555 285.44214 288.52798 291.16098 295.38834 298.04965"
         y="-500.8714"
         sodipodi:role="line"
         id="tspan6277">specify the actual field</tspan></text>
<text
       transform="scale(1.0484596,-0.95378016)"
       id="text6279"
       x="248.82245"
       y="-488.29028"
       style="font-size:11.44536209px"><tspan
         style="font-size:9.43393517px;font-variant:normal;font-weight:normal;writing-mode:lr-tb;fill:#000000;fill-opacity:1;fill-rule:nonzero;stroke:none;font-family:Times New Roman;-inkscape-font-specification:TimesNewRomanPSMT"
         x="248.82245 253.05357 257.74695 260.41205 263.59601 268.17618"
         y="-488.29028"
         sodipodi:role="line"
         id="tspan6281">entry.</tspan></text>
<g
       id="g6283"
       transform="translate(94.32,583.5)"><path
         d="m 0,0 0,81.06 401.1,0"
         style="fill:none;stroke:#000000;stroke-width:2.16000009;stroke-linecap:round;stroke-linejoin:round;stroke-miterlimit:10;stroke-opacity:1;stroke-dasharray:none"
         id="path6285"
         inkscape:connector-curvature="0" /></g><g
       id="g6287"
       transform="translate(94.32,637.5)"><path
         d="M 0,0 401.1,0"
         style="fill:none;stroke:#000000;stroke-width:2.16000009;stroke-linecap:round;stroke-linejoin:round;stroke-miterlimit:10;stroke-opacity:1;stroke-dasharray:none"
         id="path6289"
         inkscape:connector-curvature="0" /></g><g
       id="g6291"
       transform="translate(94.32,610.5)"><path
         d="M 0,0 401.1,0"
         style="fill:none;stroke:#000000;stroke-width:2.16000009;stroke-linecap:round;stroke-linejoin:round;stroke-miterlimit:10;stroke-opacity:1;stroke-dasharray:none"
         id="path6293"
         inkscape:connector-curvature="0" /></g><g
       id="g6295"
       transform="translate(94.32,583.5)"><path
         d="M 0,0 401.1,0"
         style="fill:none;stroke:#000000;stroke-width:2.16000009;stroke-linecap:round;stroke-linejoin:round;stroke-miterlimit:10;stroke-opacity:1;stroke-dasharray:none"
         id="path6297"
         inkscape:connector-curvature="0" /></g><g
       id="g6299"
       transform="translate(207.06,583.5)"><path
         d="M 0,0 0,81.06"
         style="fill:none;stroke:#000000;stroke-width:2.16000009;stroke-linecap:round;stroke-linejoin:round;stroke-miterlimit:10;stroke-opacity:1;stroke-dasharray:none"
         id="path6301"
         inkscape:connector-curvature="0" /></g><g
       id="g6303"
       transform="translate(369.24,583.5)"><path
         d="M 0,0 0,81.06"
         style="fill:none;stroke:#000000;stroke-width:2.16000009;stroke-linecap:round;stroke-linejoin:round;stroke-miterlimit:10;stroke-opacity:1;stroke-dasharray:none"
         id="path6305"
         inkscape:connector-curvature="0" /></g><g
       id="g6307"
       transform="translate(436.8,583.5)"><path
         d="M 0,0 0,81.06"
         style="fill:none;stroke:#000000;stroke-width:2.16000009;stroke-linecap:round;stroke-linejoin:round;stroke-miterlimit:10;stroke-opacity:1;stroke-dasharray:none"
         id="path6309"
         inkscape:connector-curvature="0" /></g><g
       id="g6311"
       transform="translate(495.42,583.5)"><path
         d="M 0,0 0,81.06"
         style="fill:none;stroke:#000000;stroke-width:2.16000009;stroke-linecap:round;stroke-linejoin:round;stroke-miterlimit:10;stroke-opacity:1;stroke-dasharray:none"
         id="path6313"
         inkscape:connector-curvature="0" /></g><g
       id="g6315"
       transform="translate(216.06,705)"><path
         d="M 0,0 -45.3,-36.84"
         style="fill:none;stroke:#000000;stroke-width:1.20000005;stroke-linecap:round;stroke-linejoin:round;stroke-miterlimit:10;stroke-opacity:1;stroke-dasharray:none"
         id="path6317"
         inkscape:connector-curvature="0" /></g><path
       d="m 166.44,664.56 3.36,7.56 0.72,-1.8 0.96,-1.56 1.44,-1.44 1.68,-0.96 -8.16,-1.8"
       style="fill:#000000;fill-opacity:1;fill-rule:evenodd;stroke:none"
       id="path6319"
       inkscape:connector-curvature="0" /><g
       id="g6321"
       transform="translate(139.38,547.5)"><path
         d="M 0,0 0,25.92"
         style="fill:none;stroke:#000000;stroke-width:1.20000005;stroke-linecap:round;stroke-linejoin:round;stroke-miterlimit:10;stroke-opacity:1;stroke-dasharray:none"
         id="path6323"
         inkscape:connector-curvature="0" /></g><path
       d="m 139.38,578.94 3.72,-7.44 -1.8,0.72 -1.92,0.24 -1.92,-0.24 -1.8,-0.72 3.72,7.44"
       style="fill:#000000;fill-opacity:1;fill-rule:evenodd;stroke:none"
       id="path6325"
       inkscape:connector-curvature="0" /><g
       id="g6327"
       transform="translate(283.56,547.5)"><path
         d="M 0,0 0,25.92"
         style="fill:none;stroke:#000000;stroke-width:1.20000005;stroke-linecap:round;stroke-linejoin:round;stroke-miterlimit:10;stroke-opacity:1;stroke-dasharray:none"
         id="path6329"
         inkscape:connector-curvature="0" /></g><path
       d="m 283.56,578.94 3.72,-7.44 -1.8,0.72 -1.92,0.24 -1.92,-0.24 -1.8,-0.72 3.72,7.44"
       style="fill:#000000;fill-opacity:1;fill-rule:evenodd;stroke:none"
       id="path6331"
       inkscape:connector-curvature="0" /><g
       id="g6333"
       transform="translate(405.3,547.5)"><path
         d="M 0,0 0,25.92"
         style="fill:none;stroke:#000000;stroke-width:1.20000005;stroke-linecap:round;stroke-linejoin:round;stroke-miterlimit:10;stroke-opacity:1;stroke-dasharray:none"
         id="path6335"
         inkscape:connector-curvature="0" /></g><path
       d="m 405.3,578.94 3.72,-7.44 -1.92,0.72 -1.8,0.24 -1.92,-0.24 -1.8,-0.72 3.72,7.44"
       style="fill:#000000;fill-opacity:1;fill-rule:evenodd;stroke:none"
       id="path6337"
       inkscape:connector-curvature="0" /><g
       id="g6339"
       transform="translate(468.36,547.5)"><path
         d="M 0,0 0,25.92"
         style="fill:none;stroke:#000000;stroke-width:1.20000005;stroke-linecap:round;stroke-linejoin:round;stroke-miterlimit:10;stroke-opacity:1;stroke-dasharray:none"
         id="path6341"
         inkscape:connector-curvature="0" /></g><path
       d="m 468.36,578.94 3.72,-7.44 -1.92,0.72 -1.8,0.24 -1.92,-0.24 -1.8,-0.72 3.72,7.44"
       style="fill:#000000;fill-opacity:1;fill-rule:evenodd;stroke:none"
       id="path6343"
       inkscape:connector-curvature="0" /><text
       transform="scale(1.0484596,-0.95378016)"
       id="text6345"
       x="153.59676"
       y="-740.79962"
       style="font-size:11.44536209px"><tspan
         style="font-size:9.43393517px;font-variant:normal;font-weight:normal;writing-mode:lr-tb;fill:#000000;fill-opacity:1;fill-rule:nonzero;stroke:none;font-family:Times New Roman;-inkscape-font-specification:TimesNewRomanPSMT"
         x="153.59676 156.79391 159.42505 163.66937 170.88539 174.54482 176.94952 179.58064 184.26837"
         y="-740.79962"
         sodipodi:role="line"
         id="tspan6347">Items in </tspan></text>
<text
       transform="scale(1.049625,-0.95272122)"
       id="text6349"
       x="186.4666"
       y="-741.62305"
       style="font-size:11.43265438px"><tspan
         style="font-size:9.44442081px;font-style:italic;font-variant:normal;font-weight:bold;writing-mode:lr-tb;fill:#000000;fill-opacity:1;fill-rule:nonzero;stroke:none;font-family:Times New Roman;-inkscape-font-specification:TimesNewRomanPS-BoldItalicMT"
         x="186.4666 192.77264 197.63368 200.26584 205.07022 207.47571 211.1562 213.78836 218.59274 221.2249 223.85706 228.05699"
         y="-741.62305"
         sodipodi:role="line"
         id="tspan6351">Bold Italics</tspan></text>
<text
       transform="scale(1.0484596,-0.95378016)"
       id="text6353"
       x="234.34402"
       y="-740.79962"
       style="font-size:11.44536209px"><tspan
         style="font-size:9.43393517px;font-variant:normal;font-weight:normal;writing-mode:lr-tb;fill:#000000;fill-opacity:1;fill-rule:nonzero;stroke:none;font-family:Times New Roman;-inkscape-font-specification:TimesNewRomanPSMT"
         x="234.34402 238.63458 241.84023 246.07417 248.47795 251.14586 255.84207 260.07602 262.4798 265.14771 269.38165 274.14392 278.37787 281.04578 284.70425 287.10803 290.20047 295.00989 298.19669 300.60043 303.26834 307.96457 312.19852 314.60229 319.29849 323.58905 327.823 332.58527 336.81921"
         y="-740.79962"
         sodipodi:role="line"
         id="tspan6355">are the labels for the header</tspan></text>
<text
       transform="scale(1.0484596,-0.95378016)"
       id="text6357"
       x="107.18591"
       y="-561.45013"
       style="font-size:11.44536209px"><tspan
         style="font-size:9.43393517px;font-variant:normal;font-weight:normal;writing-mode:lr-tb;fill:#000000;fill-opacity:1;fill-rule:nonzero;stroke:none;font-family:Times New Roman;-inkscape-font-specification:TimesNewRomanPSMT"
         x="107.18591 114.0491 118.28965 125.50189 129.73302 132.13396 135.22357 140.03015 143.22354 145.62448 149.92163 154.16219 158.40274"
         y="-561.45013"
         sodipodi:role="line"
         id="tspan6359">Name for each</tspan></text>
<text
       transform="scale(1.0484596,-0.95378016)"
       id="text6361"
       x="100.60483"
       y="-548.80579"
       style="font-size:11.44536209px"><tspan
         style="font-size:9.43393517px;font-variant:normal;font-weight:normal;writing-mode:lr-tb;fill:#000000;fill-opacity:1;fill-rule:nonzero;stroke:none;font-family:Times New Roman;-inkscape-font-specification:TimesNewRomanPSMT"
         x="100.60483 103.69538 106.33311 110.63121 113.26894 118.07648 120.47836 123.12552 127.86701 130.26889 132.91606 137.65755 141.87074 144.27263 147.36317 150.00092 152.69524 156.92731 159.31032 161.7122 165.9254"
         y="-548.80579"
         sodipodi:role="line"
         id="tspan6363">field in the file, as</tspan></text>
<text
       transform="scale(1.0484596,-0.95378016)"
       id="text6365"
       x="98.544373"
       y="-536.22473"
       style="font-size:11.44536209px"><tspan
         style="font-size:9.43393517px;font-variant:normal;font-weight:normal;writing-mode:lr-tb;fill:#000000;fill-opacity:1;fill-rule:nonzero;stroke:none;font-family:Times New Roman;-inkscape-font-specification:TimesNewRomanPSMT"
         x="98.544373 102.20569 107.07454 111.29245 115.51037 118.16225 121.24809 123.8811 128.099 132.84521 135.25182 137.9037 142.59331 144.99991 147.65178 152.39799 156.61591 159.02251 162.10835 164.76022 167.41211"
         y="-536.22473"
         sodipodi:role="line"
         id="tspan6367">specified in the file</tspan></text>
<text
       transform="scale(1.0484596,-0.95378016)"
       id="text6369"
       x="122.40758"
       y="-523.64362"
       style="font-size:11.44536209px"><tspan
         style="font-size:9.43393517px;font-variant:normal;font-weight:normal;writing-mode:lr-tb;fill:#000000;fill-opacity:1;fill-rule:nonzero;stroke:none;font-family:Times New Roman;-inkscape-font-specification:TimesNewRomanPSMT"
         x="122.40758 127.10001 131.34906 135.5981 140.37544 144.6245"
         y="-523.64362"
         sodipodi:role="line"
         id="tspan6371">header</tspan></text>
<text
       transform="scale(1.0484596,-0.95378016)"
       id="text6373"
       x="374.66251"
       y="-548.05206"
       style="font-size:11.44536209px"><tspan
         style="font-size:9.43393517px;font-variant:normal;font-weight:normal;writing-mode:lr-tb;fill:#000000;fill-opacity:1;fill-rule:nonzero;stroke:none;font-family:Times New Roman;-inkscape-font-specification:TimesNewRomanPSMT"
         x="374.66251 379.95493 382.62473 386.86057 389.53036 394.29453 396.70016 402.65298 407.22842 412.09634 416.33218 418.73782 422.97366 427.66235 432.42648 434.83212 441.17172 445.93588 450.62454 455.36981 458.03961 460.44525 463.53958 468.35089"
         y="-548.05206"
         sodipodi:role="line"
         id="tspan6375">Field Type and Count for</tspan></text>
<text
       transform="scale(1.0484596,-0.95378016)"
       id="text6377"
       x="378.66818"
       y="-535.47101"
       style="font-size:11.44536209px"><tspan
         style="font-size:9.43393517px;font-variant:normal;font-weight:normal;writing-mode:lr-tb;fill:#000000;fill-opacity:1;fill-rule:nonzero;stroke:none;font-family:Times New Roman;-inkscape-font-specification:TimesNewRomanPSMT"
         x="378.66818 382.8974 387.12665 391.35587 396.04736 398.45587 401.54358 404.17847 408.40771 411.07092 415.82846 418.23694 420.90015 425.59161 428.00012 430.6633 435.3548 439.58405 441.99252 445.08026 447.74347 450.40665 454.7019 457.10098 459.50946 463.73868"
         y="-535.47101"
         sodipodi:role="line"
         id="tspan6379">each field in the file, as</tspan></text>
<text
       transform="scale(1.0484596,-0.95378016)"
       id="text6381"
       x="378.89737"
       y="-522.88989"
       style="font-size:11.44536209px"><tspan
         style="font-size:9.43393517px;font-variant:normal;font-weight:normal;writing-mode:lr-tb;fill:#000000;fill-opacity:1;fill-rule:nonzero;stroke:none;font-family:Times New Roman;-inkscape-font-specification:TimesNewRomanPSMT"
         x="378.89737 382.55869 387.36151 391.58884 395.81619 398.47751 401.56335 404.19635 408.42371 413.29254 415.69916 418.36047 423.05008 425.45667 428.11798 432.80759 437.03494 439.44153 444.13113 448.35849 452.58585 457.45468 461.68204 464.86221"
         y="-522.88989"
         sodipodi:role="line"
         id="tspan6383">specified in the header.</tspan></text>
<text
       transform="scale(1.049625,-0.95272122)"
       id="text6385"
       x="120.32869"
       y="-677.82684"
       style="font-size:11.43265438px"><tspan
         style="font-size:9.44442081px;font-style:italic;font-variant:normal;font-weight:bold;writing-mode:lr-tb;fill:#000000;fill-opacity:1;fill-rule:nonzero;stroke:none;font-family:Times New Roman;-inkscape-font-specification:TimesNewRomanPS-BoldItalicMT"
         x="120.32869 126.63662 129.27066 133.47249 136.10654 140.91281 143.31075 150.22311 155.02937 162.57452 240.20673 246.51465 249.14871 253.35052 255.98457 260.79083 263.18878 270.01614 274.21796 277.90036 282.18716 285.86957 288.5036 293.30988 295.94391 298.57797 303.38422 364.95148 371.29718 373.93121 378.13306 380.76709 385.57336 387.97131 393.80701 398.03717 402.84341 433.99963 440.30756 445.11383 450.37341 455.68967"
         y="-677.82684"
         sodipodi:role="line"
         id="tspan6387">Field NameField DescriptionField TypeCount</tspan></text>
<text
       transform="scale(1.0484596,-0.95378016)"
       id="text6389"
       x="102.32153"
       y="-653.42102"
       style="font-size:11.44536209px"><tspan
         style="font-size:9.43393517px;font-variant:normal;font-weight:normal;writing-mode:lr-tb;fill:#000000;fill-opacity:1;fill-rule:nonzero;stroke:none;font-family:Times New Roman;-inkscape-font-specification:TimesNewRomanPSMT"
         x="102.32153 108.6734 114.51584 120.8111 127.67241 133.96767 140.82898 145.63368 151.07045 157.93175 163.19872 166.39966 172.35529 175.55623 182.41753"
         y="-653.42102"
         sodipodi:role="line"
         id="tspan6391">RECORD_POSITION</tspan></text>
<text
       transform="scale(1.0484596,-0.95378016)"
       id="text6393"
       x="102.32153"
       y="-625.11261"
       style="font-size:11.44536209px"><tspan
         style="font-size:9.43393517px;font-variant:normal;font-weight:normal;writing-mode:lr-tb;fill:#000000;fill-opacity:1;fill-rule:nonzero;stroke:none;font-family:Times New Roman;-inkscape-font-specification:TimesNewRomanPSMT"
         x="102.32153 108.6734 114.51584 120.8111 127.67241 133.96767 140.82898 145.63368 151.41008 157.2525 164.11382 170.97511 176.93076"
         y="-625.11261"
         sodipodi:role="line"
         id="tspan6395">RECORD_LENGTH</tspan></text>
<text
       transform="scale(1.0484596,-0.95378016)"
       id="text6397"
       x="205.50137"
       y="-653.42102"
       style="font-size:11.44536209px"><tspan
         style="font-size:9.43393517px;font-variant:normal;font-weight:normal;writing-mode:lr-tb;fill:#000000;fill-opacity:1;fill-rule:nonzero;stroke:none;font-family:Times New Roman;-inkscape-font-specification:TimesNewRomanPSMT"
         x="205.50137 210.87967 215.68248 219.38153 222.0334 224.68529 227.33716 232.13998 236.8862 239.29279 244.09561 247.18144 249.58804 252.79652 257.01443 261.23236 266.03516 269.24365 274.04645 276.45306 279.10495 283.85117 286.25775 289.3436 291.99548 294.64734 298.86526 301.25299 303.65958 306.31146 311.05768 313.46426 318.26709 322.84351 325.53311 329.7699"
         y="-653.42102"
         sodipodi:role="line"
         id="tspan6399">Position of record in file, in bytes</tspan></text>
<text
       transform="scale(1.0484596,-0.95378016)"
       id="text6401"
       x="205.50137"
       y="-625.11261"
       style="font-size:11.44536209px"><tspan
         style="font-size:9.43393517px;font-variant:normal;font-weight:normal;writing-mode:lr-tb;fill:#000000;fill-opacity:1;fill-rule:nonzero;stroke:none;font-family:Times New Roman;-inkscape-font-specification:TimesNewRomanPSMT"
         x="205.50137 211.2542 215.48814 220.19379 224.89943 227.51074 232.2164 234.62016 239.48619 242.57863 244.98239 248.18805 252.422 256.65594 261.46536 264.67102 269.48044 271.88422 274.28796 276.89929 281.6521 284.05588 288.8653 293.43887 296.05017 300.28412"
         y="-625.11261"
         sodipodi:role="line"
         id="tspan6403">Length of record, in bytes</tspan></text>
<text
       transform="scale(1.0484596,-0.95378016)"
       id="text6405"
       x="377.41034"
       y="-653.42102"
       style="font-size:11.44536209px"><tspan
         style="font-size:9.43393517px;font-variant:normal;font-weight:normal;writing-mode:lr-tb;fill:#000000;fill-opacity:1;fill-rule:nonzero;stroke:none;font-family:Times New Roman;-inkscape-font-specification:TimesNewRomanPSMT"
         x="377.41034"
         y="-653.42102"
         id="tspan6407">I</tspan></text>
<text
       transform="scale(1.0484596,-0.95378016)"
       id="text6409"
       x="377.41034"
       y="-625.11261"
       style="font-size:11.44536209px"><tspan
         style="font-size:9.43393517px;font-variant:normal;font-weight:normal;writing-mode:lr-tb;fill:#000000;fill-opacity:1;fill-rule:nonzero;stroke:none;font-family:Times New Roman;-inkscape-font-specification:TimesNewRomanPSMT"
         x="377.41034"
         y="-625.11261"
         id="tspan6411">I</tspan></text>
<text
       transform="scale(1.0484596,-0.95378016)"
       id="text6413"
       x="441.90448"
       y="-653.42102"
       style="font-size:11.44536209px"><tspan
         style="font-size:9.43393517px;font-variant:normal;font-weight:normal;writing-mode:lr-tb;fill:#000000;fill-opacity:1;fill-rule:nonzero;stroke:none;font-family:Times New Roman;-inkscape-font-specification:TimesNewRomanPSMT"
         x="441.90448"
         y="-653.42102"
         id="tspan6415">4</tspan></text>
<text
       transform="scale(1.0484596,-0.95378016)"
       id="text6417"
       x="441.90448"
       y="-625.11261"
       style="font-size:11.44536209px"><tspan
         style="font-size:9.43393517px;font-variant:normal;font-weight:normal;writing-mode:lr-tb;fill:#000000;fill-opacity:1;fill-rule:nonzero;stroke:none;font-family:Times New Roman;-inkscape-font-specification:TimesNewRomanPSMT"
         x="441.90448"
         y="-625.11261"
         id="tspan6419">4</tspan></text>
</g></svg>