<?xml version="1.0" encoding="UTF-8" standalone="no"?>
<!-- Created with Inkscape (http://www.inkscape.org/) -->

<svg
   xmlns:dc="http://purl.org/dc/elements/1.1/"
   xmlns:cc="http://creativecommons.org/ns#"
   xmlns:rdf="http://www.w3.org/1999/02/22-rdf-syntax-ns#"
   xmlns:svg="http://www.w3.org/2000/svg"
   xmlns="http://www.w3.org/2000/svg"
   xmlns:sodipodi="http://sodipodi.sourceforge.net/DTD/sodipodi-0.dtd"
   xmlns:inkscape="http://www.inkscape.org/namespaces/inkscape"
   id="svg3004"
   version="1.1"
   inkscape:version="0.48.5 r10040"
   width="498.8255"
   height="343.42603"
   xml:space="preserve"
   sodipodi:docname="figure-3-1-2.svg"
   inkscape:export-filename="/Users/schwehr/Desktop/figure-3-1-2.png"
   inkscape:export-xdpi="90.211906"
   inkscape:export-ydpi="90.211906"><metadata
     id="metadata3010"><rdf:RDF><cc:Work
         rdf:about=""><dc:format>image/svg+xml</dc:format><dc:type
           rdf:resource="http://purl.org/dc/dcmitype/StillImage" /><dc:title></dc:title></cc:Work></rdf:RDF></metadata><defs
     id="defs3008"><clipPath
       clipPathUnits="userSpaceOnUse"
       id="clipPath3020"><path
         d="M 9,9 603,9 603,783 9,783 9,9 z"
         id="path3022"
         inkscape:connector-curvature="0" /></clipPath><clipPath
       clipPathUnits="userSpaceOnUse"
       id="clipPath3272"><path
         d="m 129.12,581.7 36.54,0 0,7.8 -36.54,0 0,-7.8 z"
         id="path3274"
         inkscape:connector-curvature="0" /></clipPath><clipPath
       clipPathUnits="userSpaceOnUse"
       id="clipPath3284"><path
         d="M 9,9 603,9 603,783 9,783 9,9 z"
         id="path3286"
         inkscape:connector-curvature="0" /></clipPath><clipPath
       clipPathUnits="userSpaceOnUse"
       id="clipPath3296"><path
         d="m 118.92,550.62 33.06,0 0,7.8 -33.06,0 0,-7.8 z"
         id="path3298"
         inkscape:connector-curvature="0" /></clipPath><clipPath
       clipPathUnits="userSpaceOnUse"
       id="clipPath3308"><path
         d="M 9,9 603,9 603,783 9,783 9,9 z"
         id="path3310"
         inkscape:connector-curvature="0" /></clipPath></defs><sodipodi:namedview
     pagecolor="#ffffff"
     bordercolor="#666666"
     borderopacity="1"
     objecttolerance="10"
     gridtolerance="10"
     guidetolerance="10"
     inkscape:pageopacity="0"
     inkscape:pageshadow="2"
     inkscape:window-width="1187"
     inkscape:window-height="777"
     id="namedview3006"
     showgrid="false"
     inkscape:zoom="0.84852814"
     inkscape:cx="222.86006"
     inkscape:cy="120.24142"
     inkscape:window-x="0"
     inkscape:window-y="0"
     inkscape:window-maximized="0"
     inkscape:current-layer="g3012"
     fit-margin-top="0"
     fit-margin-left="0"
     fit-margin-right="0"
     fit-margin-bottom="0" /><g
     id="g3012"
     inkscape:groupmode="layer"
     inkscape:label="GSF_spec_03-06-p22"
     transform="matrix(1.25,0,0,-1.25,-112.49949,931.95015)"><g
       id="g3014" /><text
       transform="scale(1,-1)"
       id="text3024"
       x="102.8"
       y="-745.56012"><tspan
         style="font-size:10.97999954px;font-variant:normal;font-weight:normal;writing-mode:lr-tb;fill:#000000;fill-opacity:1;fill-rule:nonzero;stroke:none;font-family:Calibri;-inkscape-font-specification:Calibri"
         x="102.8"
         y="-745.56012"
         id="tspan3026"> </tspan></text>
<path
       d="m 90,522.78 399.06,0 0,197.28 -399.06,0 0,-197.28 z"
       style="fill:#ffffff;fill-opacity:1;fill-rule:nonzero;stroke:none"
       id="path3142"
       inkscape:connector-curvature="0" /><path
       d="m 96.599666,522.78 392.460334,0 0,197.28 -392.460334,0 0,-197.28 z"
       style="fill:#ffffff;fill-opacity:1;fill-rule:nonzero;stroke:none"
       id="path3144"
       inkscape:connector-curvature="0" /><g
       id="g3146"
       transform="translate(188.72,696.06)"><path
         d="M 0,0 74.28,-75.36 87.72,-80.76 1.32,0"
         style="fill:none;stroke:#000000;stroke-width:0.12;stroke-linecap:round;stroke-linejoin:round;stroke-miterlimit:10;stroke-opacity:1;stroke-dasharray:none"
         id="path3148"
         inkscape:connector-curvature="0" /></g><path
       d="m 117.2,537.18 -13.56,5.28 0.96,-0.12 0.84,0 c 5.975,0.294 10.437,5.368 15.84,7.68 l 1.8,0.96 1.92,0.96 2.04,0.96 c 3.928,1.569 7.795,3.5 11.64,5.04 l 3.6,1.8 c 2.883,1.551 6.07,2.88 8.16,5.52 l 0.96,0.96 0.6,1.08 0,0.12 0.12,0 0,0.12 0.12,0.12 0,0.12 0.12,0.12 0,0.36 0.24,0 0,0.36 0.12,0 0,0.12 0.12,0.12 0,0.12 0.24,0.24 0.12,0 0,0.24 0.36,0.48 0.48,0.6 c 4.332,4.663 9.747,8.731 14.88,12.48 l 1.32,0.84 1.08,0.84 1.2,0.84 c 4.783,2.91 8.814,5.399 13.92,7.8 l 2.4,1.2 2.4,0.96 c 5.297,2.263 10.498,4.067 15.84,6.12 l 4.08,1.44 4.08,1.68 0.72,0.36 c 7.483,3.328 14.868,5.609 22.8,7.68 l 1.32,0.36 1.32,0.24 c 6.769,1.921 13.595,3.305 20.04,6.24 l 0.6,0.36 0.96,0.72 13.44,-5.4 -0.36,-0.36 -0.48,-0.36 -0.72,-0.36 c -5.952,-2.765 -12.418,-4.143 -18.72,-5.88 l -1.32,-0.36 -1.32,-0.24 c -7.913,-2.104 -15.785,-4.403 -23.28,-7.68 l -0.84,-0.36 -0.72,-0.36 -2.04,-0.84 -1.92,-0.84 c -13.396,-4.787 -26.75,-9.522 -38.64,-17.52 l -2.4,-1.68 c -5.506,-3.992 -11.53,-8.245 -16.08,-13.32 l -0.48,-0.6 -0.48,-0.48 0,-0.24 -0.12,0 -0.12,-0.12 0,-0.12 -0.12,-0.12 0,-0.12 -0.24,-0.24 0,-0.24 -0.12,0 -0.12,-0.12 0,-0.36 -0.12,-0.12 0,-0.12 -0.24,-0.24 -0.6,-1.08 -0.84,-0.96 -1.08,-0.96 -1.2,-1.08 c -3.642,-2.704 -9.153,-4.987 -13.32,-6.84 l -1.92,-0.96 -4.08,-1.68 -1.92,-0.84 c -3.775,-1.781 -8.039,-3.913 -11.52,-6.24 l -1.92,-1.2 c -2.103,-1.414 -4.632,-2.792 -7.2,-3 l -1.8,0 -0.84,0.12"
       style="fill:#c0c0c0;fill-opacity:1;fill-rule:evenodd;stroke:none"
       id="path3150"
       inkscape:connector-curvature="0" /><g
       id="g3152"
       transform="translate(184.64,698.82)"><path
         d="M 0,0 -68.76,-161.64 -81,-156.36 -1.32,0"
         style="fill:none;stroke:#000000;stroke-width:0.12;stroke-linecap:round;stroke-linejoin:round;stroke-miterlimit:10;stroke-opacity:1;stroke-dasharray:none"
         id="path3154"
         inkscape:connector-curvature="0" /></g><g
       id="g3156"
       transform="translate(168.08,706.74)"><path
         d="m 0,0 0,-3.6 7.32,-3.36 6.24,-2.4 7.44,-1.44 8.76,-1.56 7.2,0.36 2.16,9.12 -8.04,-1.08 -2.16,0 -1.92,-2.16 -4.68,0 -6.12,1.2 -8.4,2.4 L 0,0 z"
         style="fill:#000080;fill-opacity:1;fill-rule:evenodd;stroke:#000000;stroke-width:0.47999999;stroke-linecap:round;stroke-linejoin:round;stroke-miterlimit:10;stroke-opacity:1;stroke-dasharray:none"
         id="path3158"
         inkscape:connector-curvature="0" /></g><g
       id="g3160"
       transform="translate(192.68,708.54)"><path
         d="M 0,0 -3.96,0.84 1.44,2.4 5.64,1.56 0,0 z"
         style="fill:#ffffff;fill-opacity:1;fill-rule:evenodd;stroke:#000000;stroke-width:0.12;stroke-linecap:round;stroke-linejoin:round;stroke-miterlimit:10;stroke-opacity:1;stroke-dasharray:none"
         id="path3162"
         inkscape:connector-curvature="0" /></g><g
       id="g3164"
       transform="translate(180.2,704.46)"><path
         d="m 0,0 0,4.92 -8.28,2.16 0,-4.44 L 0,-0.12 4.44,0.84 4.44,6.12 0,4.92"
         style="fill:none;stroke:#000000;stroke-width:0.12;stroke-linecap:round;stroke-linejoin:round;stroke-miterlimit:10;stroke-opacity:1;stroke-dasharray:none"
         id="path3166"
         inkscape:connector-curvature="0" /></g><g
       id="g3168"
       transform="translate(176,712.5)"><path
         d="M 0,0 8.64,-2.04 4.32,-3.12 -4.2,-0.84 0,0 z"
         style="fill:#ffffff;fill-opacity:1;fill-rule:evenodd;stroke:#000000;stroke-width:0.12;stroke-linecap:round;stroke-linejoin:round;stroke-miterlimit:10;stroke-opacity:1;stroke-dasharray:none"
         id="path3170"
         inkscape:connector-curvature="0" /></g><g
       id="g3172"
       transform="translate(172.88,705.78)"><path
         d="M 0,0 3.96,9.84 6.36,6"
         style="fill:none;stroke:#000000;stroke-width:0.47999999;stroke-linecap:round;stroke-linejoin:round;stroke-miterlimit:10;stroke-opacity:1;stroke-dasharray:none"
         id="path3174"
         inkscape:connector-curvature="0" /></g><g
       id="g3176"
       transform="translate(188.72,706.86)"><path
         d="M 0,0 0,12.6"
         style="fill:none;stroke:#000000;stroke-width:0.47999999;stroke-linecap:round;stroke-linejoin:round;stroke-miterlimit:10;stroke-opacity:1;stroke-dasharray:none"
         id="path3178"
         inkscape:connector-curvature="0" /></g><g
       id="g3180"
       transform="translate(186.32,717.66)"><path
         d="M 0,0 4.68,0.96"
         style="fill:none;stroke:#000000;stroke-width:0.47999999;stroke-linecap:round;stroke-linejoin:round;stroke-miterlimit:10;stroke-opacity:1;stroke-dasharray:none"
         id="path3182"
         inkscape:connector-curvature="0" /></g><g
       id="g3184"
       transform="translate(168.2,706.86)"><path
         d="M 0,0 3.6,1.32"
         style="fill:none;stroke:#000000;stroke-width:0.47999999;stroke-linecap:round;stroke-linejoin:round;stroke-miterlimit:10;stroke-opacity:1;stroke-dasharray:none"
         id="path3186"
         inkscape:connector-curvature="0" /></g><g
       id="g3188"
       transform="translate(177.92,698.58)"><path
         d="M 0,0 -6.12,0.84"
         style="fill:none;stroke:#000000;stroke-width:0.12;stroke-linecap:round;stroke-linejoin:round;stroke-miterlimit:10;stroke-opacity:1;stroke-dasharray:none"
         id="path3190"
         inkscape:connector-curvature="0" /></g><g
       id="g3192"
       transform="translate(165.8,702.18)"><path
         d="M 0,0 6.24,-1.32"
         style="fill:none;stroke:#000000;stroke-width:0.12;stroke-linecap:round;stroke-linejoin:round;stroke-miterlimit:10;stroke-opacity:1;stroke-dasharray:none"
         id="path3194"
         inkscape:connector-curvature="0" /></g><g
       id="g3196"
       transform="translate(190.4,694.62)"><path
         d="M 0,0 7.32,-0.36"
         style="fill:none;stroke:#000000;stroke-width:0.12;stroke-linecap:round;stroke-linejoin:round;stroke-miterlimit:10;stroke-opacity:1;stroke-dasharray:none"
         id="path3198"
         inkscape:connector-curvature="0" /></g><g
       id="g3200"
       transform="translate(185.6,695.58)"><path
         d="M 0,0 5.28,-0.12"
         style="fill:none;stroke:#000000;stroke-width:0.12;stroke-linecap:round;stroke-linejoin:round;stroke-miterlimit:10;stroke-opacity:1;stroke-dasharray:none"
         id="path3202"
         inkscape:connector-curvature="0" /></g><g
       id="g3204"
       transform="translate(175.88,697.38)"><path
         d="M 0,0 7.56,-0.6"
         style="fill:none;stroke:#000000;stroke-width:0.12;stroke-linecap:round;stroke-linejoin:round;stroke-miterlimit:10;stroke-opacity:1;stroke-dasharray:none"
         id="path3206"
         inkscape:connector-curvature="0" /></g><g
       id="g3208"
       transform="translate(192.68,705.66)"><path
         d="M 0,0 -0.12,2.88 5.76,4.44 5.76,1.92 0,0 z"
         style="fill:#ffffff;fill-opacity:1;fill-rule:evenodd;stroke:#000000;stroke-width:0.12;stroke-linecap:round;stroke-linejoin:round;stroke-miterlimit:10;stroke-opacity:1;stroke-dasharray:none"
         id="path3210"
         inkscape:connector-curvature="0" /></g><g
       id="g3212"
       transform="translate(188.72,709.38)"><path
         d="m 0,0 -0.12,-4.2 4.08,-0.84 0,4.2 L 0,0 z"
         style="fill:#ffffff;fill-opacity:1;fill-rule:evenodd;stroke:#000000;stroke-width:0.12;stroke-linecap:round;stroke-linejoin:round;stroke-miterlimit:10;stroke-opacity:1;stroke-dasharray:none"
         id="path3214"
         inkscape:connector-curvature="0" /></g><g
       id="g3216"
       transform="translate(191.6,705.18)"><path
         d="m 0,0 0,-3.36 8.88,2.88 0,3.36 L 0,0 z"
         style="fill:#000080;fill-opacity:1;fill-rule:evenodd;stroke:#000000;stroke-width:0.47999999;stroke-linecap:round;stroke-linejoin:round;stroke-miterlimit:10;stroke-opacity:1;stroke-dasharray:none"
         id="path3218"
         inkscape:connector-curvature="0" /></g><g
       id="g3220"
       transform="translate(192.44,705.66)"><path
         d="M 0,0 -3.84,0.96"
         style="fill:none;stroke:#000000;stroke-width:0.12;stroke-linecap:round;stroke-linejoin:round;stroke-miterlimit:10;stroke-opacity:1;stroke-dasharray:none"
         id="path3222"
         inkscape:connector-curvature="0" /></g><g
       id="g3224"
       transform="translate(188.6,706.74)"><path
         d="m 0,0 -0.24,3.96 -2.28,0 -2.4,0.48 0.12,-4.32 2.4,-0.6 L 0,0 z"
         style="fill:#000080;fill-opacity:1;fill-rule:evenodd;stroke:#000000;stroke-width:0.12;stroke-linecap:round;stroke-linejoin:round;stroke-miterlimit:10;stroke-opacity:1;stroke-dasharray:none"
         id="path3226"
         inkscape:connector-curvature="0" /></g><g
       id="g3228"
       transform="translate(188.36,710.94)"><path
         d="m 0,0 -1.92,0.6 -1.2,0 -1.44,-0.36"
         style="fill:none;stroke:#000000;stroke-width:0.12;stroke-linecap:round;stroke-linejoin:round;stroke-miterlimit:10;stroke-opacity:1;stroke-dasharray:none"
         id="path3230"
         inkscape:connector-curvature="0" /></g><g
       id="g3232"
       transform="translate(207.2,703.98)"><path
         d="M 0,0 -6.72,1.68"
         style="fill:none;stroke:#000000;stroke-width:0.47999999;stroke-linecap:round;stroke-linejoin:round;stroke-miterlimit:10;stroke-opacity:1;stroke-dasharray:none"
         id="path3234"
         inkscape:connector-curvature="0" /></g><g
       id="g3236"
       transform="translate(182.84,704.22)"><path
         d="m 0,0 8.76,-2.52 0,3.36 L 0,2.88 0,0 z"
         style="fill:#ffffff;fill-opacity:1;fill-rule:evenodd;stroke:#000000;stroke-width:0.47999999;stroke-linecap:round;stroke-linejoin:round;stroke-miterlimit:10;stroke-opacity:1;stroke-dasharray:none"
         id="path3238"
         inkscape:connector-curvature="0" /></g><g
       id="g3240"
       transform="translate(200.24,708.3)"><path
         d="M 0,0 -1.68,0.12"
         style="fill:none;stroke:#000000;stroke-width:0.12;stroke-linecap:round;stroke-linejoin:round;stroke-miterlimit:10;stroke-opacity:1;stroke-dasharray:none"
         id="path3242"
         inkscape:connector-curvature="0" /></g><g
       id="g3244"
       transform="translate(184.64,589.02)"><path
         d="M 0,0 0,109.8"
         style="fill:none;stroke:#000000;stroke-width:0.72000003;stroke-linecap:round;stroke-linejoin:round;stroke-miterlimit:10;stroke-opacity:1;stroke-dasharray:none"
         id="path3246"
         inkscape:connector-curvature="0" /></g><path
       d="m 184.64,585.66 -2.16,4.44 0.96,-0.48 2.4,0 1.08,0.48 -2.28,-4.44"
       style="fill:#000000;fill-opacity:1;fill-rule:evenodd;stroke:none"
       id="path3248"
       inkscape:connector-curvature="0" /><path
       d="m 152.24,561.42 0.12,0.36 0.36,0.36 0.6,0.36 1.68,0.24 0.84,-0.12 0.72,-0.12 0.6,-0.36 0.36,-0.36 0.12,-0.36 -0.12,-0.36 -0.36,-0.48 -0.6,-0.36 -0.72,0 -0.84,-0.12 -0.84,0.12 -0.84,0 -0.6,0.36 -0.36,0.48 -0.12,0.36"
       style="fill:#808080;fill-opacity:1;fill-rule:evenodd;stroke:none"
       id="path3250"
       inkscape:connector-curvature="0" /><g
       id="g3252"
       transform="translate(147.2,568.26)"><path
         d="M 0,0 37.44,17.4"
         style="fill:none;stroke:#000000;stroke-width:0.72000003;stroke-linecap:round;stroke-linejoin:round;stroke-miterlimit:10;stroke-opacity:1;stroke-dasharray:none"
         id="path3254"
         inkscape:connector-curvature="0" /></g><path
       d="m 144.2,566.82 3.12,3.84 0,-1.08 0.96,-2.16 0.84,-0.72 -4.92,0.12"
       style="fill:#000000;fill-opacity:1;fill-rule:evenodd;stroke:none"
       id="path3256"
       inkscape:connector-curvature="0" /><g
       id="g3258"
       transform="translate(152,562.86)"><path
         d="M 0,0 -7.8,3.96"
         style="fill:none;stroke:#000000;stroke-width:0.72000003;stroke-linecap:round;stroke-linejoin:round;stroke-miterlimit:10;stroke-opacity:1;stroke-dasharray:none"
         id="path3260"
         inkscape:connector-curvature="0" /></g><path
       d="m 155,561.42 -5.04,0 0.84,0.72 0.6,1.08 0.48,0.96 0.12,1.2 3,-3.96"
       style="fill:#000000;fill-opacity:1;fill-rule:evenodd;stroke:none"
       id="path3262"
       inkscape:connector-curvature="0" /><text
       transform="scale(1,-1)"
       id="text3264"
       x="186.32001"
       y="-644.21997"><tspan
         style="font-size:6.96000004px;font-variant:normal;font-weight:normal;writing-mode:lr-tb;fill:#000000;fill-opacity:1;fill-rule:nonzero;stroke:none;font-family:Arial;-inkscape-font-specification:ArialMT"
         x="186.32001 191.35904 195.20096 199.04288 201.08217"
         y="-644.21997"
         sodipodi:role="line"
         id="tspan3266">Depth</tspan></text>
<g
       id="g3268"
       transform="translate(12.8,0)"><g
         id="g3270"
         clip-path="url(#clipPath3272)"><text
           transform="matrix(1,0,0,-1,129.12,583.26)"
           id="text3276"><tspan
             style="font-size:6.96000004px;font-variant:normal;font-weight:normal;writing-mode:lr-tb;fill:#000000;fill-opacity:1;fill-rule:nonzero;stroke:none;font-family:Arial;-inkscape-font-specification:ArialMT"
             x="0"
             y="0"
             id="tspan3278">A</tspan></text>
</g></g><g
       id="g3280"
       transform="translate(12.8,0)"><g
         id="g3282"
         clip-path="url(#clipPath3284)"><text
           transform="matrix(1,0,0,-1,133.8,583.26)"
           id="text3288"><tspan
             style="font-size:6.96000004px;font-variant:normal;font-weight:normal;writing-mode:lr-tb;fill:#000000;fill-opacity:1;fill-rule:nonzero;stroke:none;font-family:Arial;-inkscape-font-specification:ArialMT"
             x="0 3.4758241 5.754528 9.6201124 13.095936 16.57176 18.613825 20.892529 24.848593 28.324415"
             y="0"
             sodipodi:role="line"
             id="tspan3290">crosstrack</tspan></text>
</g></g><g
       id="g3292"
       transform="translate(12.8,0)"><g
         id="g3294"
         clip-path="url(#clipPath3296)"><text
           transform="matrix(1,0,0,-1,118.92,552.1801)"
           id="text3300"><tspan
             style="font-size:6.96000004px;font-variant:normal;font-weight:normal;writing-mode:lr-tb;fill:#000000;fill-opacity:1;fill-rule:nonzero;stroke:none;font-family:Arial;-inkscape-font-specification:ArialMT"
             x="0"
             y="0"
             id="tspan3302">A</tspan></text>
</g></g><text
       transform="scale(1,-1)"
       id="text3312"
       x="136.39999"
       y="-552.18011"><tspan
         style="font-size:6.96000004px;font-variant:normal;font-weight:normal;writing-mode:lr-tb;fill:#000000;fill-opacity:1;fill-rule:nonzero;stroke:none;font-family:Arial;-inkscape-font-specification:ArialMT"
         x="136.39999 137.95905 141.79401 145.62897 149.46393 151.5032 153.78609 157.62105 161.21936"
         y="-552.18011"
         sodipodi:role="line"
         id="tspan3314">longtrack</tspan></text>
<text
       transform="scale(1,-1)"
       id="text3316"
       x="161.36"
       y="-534.84003"><tspan
         style="font-size:8.03999996px;font-variant:normal;font-weight:bold;writing-mode:lr-tb;fill:#000000;fill-opacity:1;fill-rule:nonzero;stroke:none;font-family:Arial;-inkscape-font-specification:Arial-BoldMT"
         x="161.36 167.14317 171.59171 174.69756 177.35316 181.8017 186.25023 188.53601 192.98454 197.87527 200.16104 205.94421 210.83495 215.72568 218.83153 223.63382 225.9196 230.81033 235.25887 237.91447 242.36301"
         y="-534.84003"
         sodipodi:role="line"
         id="tspan3318">Cartesian Coordinates</tspan></text>
<path
       inkscape:connector-curvature="0"
       id="path3322"
       style="fill:none;stroke:#000000;stroke-width:0.12;stroke-linecap:round;stroke-linejoin:round;stroke-miterlimit:10;stroke-opacity:1;stroke-dasharray:none"
       d="m 391.34,696.06 74.16,-75.36 13.56,-5.4 -86.4,80.76" /><path
       d="m 319.7,537.18 -13.44,5.28 0.84,-0.12 0.96,0 0.84,0.12 c 2.568,0.208 5.097,1.586 7.2,3 l 0.96,0.48 0.96,0.72 c 3.481,2.327 7.744,4.459 11.52,6.24 l 1.92,0.84 4.08,1.68 1.92,0.84 c 4.501,2.153 9.242,4.023 13.32,6.96 l 1.2,0.96 1.08,1.08 0.84,0.96 0.6,1.08 0.24,0.24 0,0.12 0.12,0.12 0,0.36 0.12,0.12 0.12,0 0,0.24 0.24,0.24 0,0.12 0.12,0.12 0,0.12 0.12,0.12 0.12,0 0,0.24 0.48,0.48 0.48,0.6 c 4.264,4.775 9.75,8.687 14.88,12.48 l 2.4,1.68 c 11.452,8.038 24.642,12.871 37.68,17.64 l 2.16,0.72 1.92,0.84 2.04,0.84 0.72,0.36 c 7.552,3.273 14.813,5.592 22.8,7.68 l 1.32,0.36 1.32,0.24 c 6.728,1.902 13.669,3.287 20.04,6.24 l 0.72,0.36 0.48,0.36 0.36,0.36 13.56,-5.4 -0.96,-0.72 -0.6,-0.36 c -6.012,-2.724 -12.481,-4.195 -18.84,-5.88 l -1.2,-0.36 -1.32,-0.24 c -7.904,-2.109 -15.816,-4.329 -23.28,-7.68 l -0.84,-0.36 -0.72,-0.36 -4.08,-1.68 c -13.33,-4.768 -26.798,-9.572 -38.64,-17.52 l -1.2,-0.84 -1.08,-0.84 c -5.508,-3.73 -11.643,-8.461 -16.2,-13.32 l -0.48,-0.6 -0.36,-0.48 0,-0.24 -0.12,0 -0.24,-0.24 0,-0.12 -0.12,-0.12 0,-0.12 -0.12,0 0,-0.24 -0.12,-0.12 -0.12,0 0,-0.36 -0.12,0 0,-0.24 -0.12,-0.12 0,-0.12 -0.12,0 0,-0.12 -0.6,-1.08 -0.96,-0.96 c -2.835,-3.07 -4.627,-3.622 -8.16,-5.52 l -1.68,-0.84 -1.92,-0.84 c -3.969,-1.705 -7.594,-3.534 -11.64,-5.16 l -2.04,-0.96 -1.92,-0.96 -1.8,-0.96 c -4.928,-1.985 -10.584,-7.858 -15.84,-7.56 l -0.84,0 -0.96,0.12"
       style="fill:#c0c0c0;fill-opacity:1;fill-rule:evenodd;stroke:none"
       id="path3324"
       inkscape:connector-curvature="0" /><path
       inkscape:connector-curvature="0"
       id="path3328"
       style="fill:none;stroke:#000000;stroke-width:0.12;stroke-linecap:round;stroke-linejoin:round;stroke-miterlimit:10;stroke-opacity:1;stroke-dasharray:none"
       d="m 387.26,698.82 -68.88,-161.64 -12.12,5.28 79.68,156.36" /><path
       inkscape:connector-curvature="0"
       id="path3332"
       style="fill:#000080;fill-opacity:1;fill-rule:evenodd;stroke:#000000;stroke-width:0.47999999;stroke-linecap:round;stroke-linejoin:round;stroke-miterlimit:10;stroke-opacity:1;stroke-dasharray:none"
       d="m 370.7,706.74 0,-3.6 7.2,-3.36 6.24,-2.4 7.44,-1.44 8.76,-1.56 7.32,0.36 2.16,9.12 -8.16,-1.08 -2.16,0 -1.8,-2.16 -4.8,0 -6,1.2 -8.4,2.4 -7.8,2.52 z" /><path
       inkscape:connector-curvature="0"
       id="path3336"
       style="fill:#ffffff;fill-opacity:1;fill-rule:evenodd;stroke:#000000;stroke-width:0.12;stroke-linecap:round;stroke-linejoin:round;stroke-miterlimit:10;stroke-opacity:1;stroke-dasharray:none"
       d="m 395.3,708.54 -3.96,0.84 5.4,1.56 4.08,-0.84 -5.52,-1.56 z" /><path
       inkscape:connector-curvature="0"
       id="path3340"
       style="fill:none;stroke:#000000;stroke-width:0.12;stroke-linecap:round;stroke-linejoin:round;stroke-miterlimit:10;stroke-opacity:1;stroke-dasharray:none"
       d="m 382.82,704.46 0,4.92 -8.28,2.16 0,-4.44 8.16,-2.76 4.56,0.96 0,5.28 -4.44,-1.2" /><path
       inkscape:connector-curvature="0"
       id="path3344"
       style="fill:#ffffff;fill-opacity:1;fill-rule:evenodd;stroke:#000000;stroke-width:0.12;stroke-linecap:round;stroke-linejoin:round;stroke-miterlimit:10;stroke-opacity:1;stroke-dasharray:none"
       d="m 378.5,712.5 8.64,-2.04 -4.2,-1.08 -8.64,2.28 4.2,0.84 z" /><path
       inkscape:connector-curvature="0"
       id="path3348"
       style="fill:none;stroke:#000000;stroke-width:0.47999999;stroke-linecap:round;stroke-linejoin:round;stroke-miterlimit:10;stroke-opacity:1;stroke-dasharray:none"
       d="m 375.38,705.78 4.08,9.84 2.4,-3.84" /><path
       inkscape:connector-curvature="0"
       id="path3352"
       style="fill:none;stroke:#000000;stroke-width:0.47999999;stroke-linecap:round;stroke-linejoin:round;stroke-miterlimit:10;stroke-opacity:1;stroke-dasharray:none"
       d="m 391.34,706.86 0,12.6" /><path
       inkscape:connector-curvature="0"
       id="path3356"
       style="fill:none;stroke:#000000;stroke-width:0.47999999;stroke-linecap:round;stroke-linejoin:round;stroke-miterlimit:10;stroke-opacity:1;stroke-dasharray:none"
       d="m 388.94,717.66 4.56,0.96" /><path
       inkscape:connector-curvature="0"
       id="path3360"
       style="fill:none;stroke:#000000;stroke-width:0.47999999;stroke-linecap:round;stroke-linejoin:round;stroke-miterlimit:10;stroke-opacity:1;stroke-dasharray:none"
       d="m 370.7,706.86 3.6,1.32" /><path
       inkscape:connector-curvature="0"
       id="path3364"
       style="fill:none;stroke:#000000;stroke-width:0.12;stroke-linecap:round;stroke-linejoin:round;stroke-miterlimit:10;stroke-opacity:1;stroke-dasharray:none"
       d="m 380.54,698.58 -6.24,0.84" /><path
       inkscape:connector-curvature="0"
       id="path3368"
       style="fill:none;stroke:#000000;stroke-width:0.12;stroke-linecap:round;stroke-linejoin:round;stroke-miterlimit:10;stroke-opacity:1;stroke-dasharray:none"
       d="m 368.3,702.18 6.36,-1.32" /><path
       inkscape:connector-curvature="0"
       id="path3372"
       style="fill:none;stroke:#000000;stroke-width:0.12;stroke-linecap:round;stroke-linejoin:round;stroke-miterlimit:10;stroke-opacity:1;stroke-dasharray:none"
       d="m 392.9,694.62 7.44,-0.36" /><path
       inkscape:connector-curvature="0"
       id="path3376"
       style="fill:none;stroke:#000000;stroke-width:0.12;stroke-linecap:round;stroke-linejoin:round;stroke-miterlimit:10;stroke-opacity:1;stroke-dasharray:none"
       d="m 388.1,695.58 5.4,-0.12" /><path
       inkscape:connector-curvature="0"
       id="path3380"
       style="fill:none;stroke:#000000;stroke-width:0.12;stroke-linecap:round;stroke-linejoin:round;stroke-miterlimit:10;stroke-opacity:1;stroke-dasharray:none"
       d="m 378.5,697.38 7.56,-0.6" /><path
       inkscape:connector-curvature="0"
       id="path3384"
       style="fill:#ffffff;fill-opacity:1;fill-rule:evenodd;stroke:#000000;stroke-width:0.12;stroke-linecap:round;stroke-linejoin:round;stroke-miterlimit:10;stroke-opacity:1;stroke-dasharray:none"
       d="m 395.18,705.66 0,2.88 5.88,1.56 0,-2.52 -5.88,-1.92 z" /><path
       inkscape:connector-curvature="0"
       id="path3388"
       style="fill:#ffffff;fill-opacity:1;fill-rule:evenodd;stroke:#000000;stroke-width:0.12;stroke-linecap:round;stroke-linejoin:round;stroke-miterlimit:10;stroke-opacity:1;stroke-dasharray:none"
       d="m 391.34,709.38 -0.24,-4.2 4.08,-0.84 0,4.2 -3.84,0.84 z" /><path
       inkscape:connector-curvature="0"
       id="path3392"
       style="fill:#000080;fill-opacity:1;fill-rule:evenodd;stroke:#000000;stroke-width:0.47999999;stroke-linecap:round;stroke-linejoin:round;stroke-miterlimit:10;stroke-opacity:1;stroke-dasharray:none"
       d="m 394.1,705.18 0,-3.36 9,2.88 0,3.36 -9,-2.88 z" /><path
       inkscape:connector-curvature="0"
       id="path3396"
       style="fill:none;stroke:#000000;stroke-width:0.12;stroke-linecap:round;stroke-linejoin:round;stroke-miterlimit:10;stroke-opacity:1;stroke-dasharray:none"
       d="m 395.06,705.66 -3.84,0.96" /><path
       inkscape:connector-curvature="0"
       id="path3400"
       style="fill:#000080;fill-opacity:1;fill-rule:evenodd;stroke:#000000;stroke-width:0.12;stroke-linecap:round;stroke-linejoin:round;stroke-miterlimit:10;stroke-opacity:1;stroke-dasharray:none"
       d="m 391.1,706.74 -0.24,3.96 -2.28,0 -2.4,0.48 0.12,-4.32 2.4,-0.6 2.4,0.48 z" /><path
       inkscape:connector-curvature="0"
       id="path3404"
       style="fill:none;stroke:#000000;stroke-width:0.12;stroke-linecap:round;stroke-linejoin:round;stroke-miterlimit:10;stroke-opacity:1;stroke-dasharray:none"
       d="m 390.86,710.94 -1.8,0.6 -1.2,0 -1.56,-0.36" /><path
       inkscape:connector-curvature="0"
       id="path3408"
       style="fill:none;stroke:#000000;stroke-width:0.47999999;stroke-linecap:round;stroke-linejoin:round;stroke-miterlimit:10;stroke-opacity:1;stroke-dasharray:none"
       d="m 409.7,703.98 -6.6,1.68" /><path
       inkscape:connector-curvature="0"
       id="path3412"
       style="fill:#ffffff;fill-opacity:1;fill-rule:evenodd;stroke:#000000;stroke-width:0.47999999;stroke-linecap:round;stroke-linejoin:round;stroke-miterlimit:10;stroke-opacity:1;stroke-dasharray:none"
       d="m 385.46,704.22 8.64,-2.52 0,3.36 -8.64,2.04 0,-2.88 z" /><path
       inkscape:connector-curvature="0"
       id="path3416"
       style="fill:none;stroke:#000000;stroke-width:0.12;stroke-linecap:round;stroke-linejoin:round;stroke-miterlimit:10;stroke-opacity:1;stroke-dasharray:none"
       d="m 402.86,708.3 -1.68,0.12" /><path
       inkscape:connector-curvature="0"
       id="path3420"
       style="fill:none;stroke:#000000;stroke-width:0.47999999;stroke-linecap:round;stroke-linejoin:round;stroke-miterlimit:10;stroke-opacity:1;stroke-dasharray:none"
       d="m 387.26,636.78 0,62.04" /><path
       d="m 354.86,561.42 0,0.36 0.48,0.36 0.6,0.36 c 1.481,0.341 3.03,0.405 4.2,-0.72 l 0.12,-0.36 -0.12,-0.36 -0.48,-0.48 -0.6,-0.36 -0.6,0 -0.96,-0.12 -0.84,0.12 -0.72,0 -0.6,0.36 -0.48,0.48 0,0.36"
       style="fill:#808080;fill-opacity:1;fill-rule:evenodd;stroke:none"
       id="path3422"
       inkscape:connector-curvature="0" /><path
       inkscape:connector-curvature="0"
       id="path3426"
       style="fill:none;stroke:#000000;stroke-width:0.47999999;stroke-linecap:round;stroke-linejoin:round;stroke-miterlimit:10;stroke-opacity:1;stroke-dasharray:none"
       d="m 357.5,564.06 3.24,1.44" /><path
       inkscape:connector-curvature="0"
       id="path3430"
       style="fill:none;stroke:#000000;stroke-width:0.47999999;stroke-linecap:round;stroke-linejoin:round;stroke-miterlimit:10;stroke-opacity:1;stroke-dasharray:none"
       d="m 362.66,566.46 3.12,1.44" /><path
       inkscape:connector-curvature="0"
       id="path3434"
       style="fill:none;stroke:#000000;stroke-width:0.47999999;stroke-linecap:round;stroke-linejoin:round;stroke-miterlimit:10;stroke-opacity:1;stroke-dasharray:none"
       d="m 367.7,568.86 3.12,1.44" /><path
       inkscape:connector-curvature="0"
       id="path3438"
       style="fill:none;stroke:#000000;stroke-width:0.47999999;stroke-linecap:round;stroke-linejoin:round;stroke-miterlimit:10;stroke-opacity:1;stroke-dasharray:none"
       d="m 372.86,571.26 3.12,1.44" /><path
       inkscape:connector-curvature="0"
       id="path3442"
       style="fill:none;stroke:#000000;stroke-width:0.47999999;stroke-linecap:round;stroke-linejoin:round;stroke-miterlimit:10;stroke-opacity:1;stroke-dasharray:none"
       d="m 377.9,573.54 3.12,1.44" /><path
       inkscape:connector-curvature="0"
       id="path3446"
       style="fill:none;stroke:#000000;stroke-width:0.47999999;stroke-linecap:round;stroke-linejoin:round;stroke-miterlimit:10;stroke-opacity:1;stroke-dasharray:none"
       d="m 383.06,575.94 3.12,1.44" /><path
       inkscape:connector-curvature="0"
       id="path3450"
       style="fill:none;stroke:#000000;stroke-width:0.47999999;stroke-linecap:round;stroke-linejoin:round;stroke-miterlimit:10;stroke-opacity:1;stroke-dasharray:none"
       d="m 388.1,578.34 3.24,1.44" /><path
       inkscape:connector-curvature="0"
       id="path3454"
       style="fill:none;stroke:#000000;stroke-width:0.47999999;stroke-linecap:round;stroke-linejoin:round;stroke-miterlimit:10;stroke-opacity:1;stroke-dasharray:none"
       d="m 393.26,580.74 3.12,1.32" /><path
       inkscape:connector-curvature="0"
       id="path3458"
       style="fill:none;stroke:#000000;stroke-width:0.72000003;stroke-linecap:round;stroke-linejoin:round;stroke-miterlimit:10;stroke-opacity:1;stroke-dasharray:none"
       d="m 358.22,564.66 29.04,136.8" /><path
       d="m 357.5,561.42 -1.2,4.8 0.96,-0.6 1.08,-0.36 1.08,-0.12 1.2,0.12 -3.12,-3.84"
       style="fill:#000000;fill-opacity:1;fill-rule:evenodd;stroke:none"
       id="path3460"
       inkscape:connector-curvature="0" /><text
       transform="scale(1,-1)"
       id="text3462"
       x="372.62003"
       y="-534.84003"><tspan
         style="font-size:8.03999996px;font-variant:normal;font-weight:bold;writing-mode:lr-tb;fill:#000000;fill-opacity:1;fill-rule:nonzero;stroke:none;font-family:Arial;-inkscape-font-specification:Arial-BoldMT"
         x="372.62003 377.98831 382.9064 385.14716 389.62302 392.61951 394.90048 400.65469 405.57275 410.49084 413.62402 418.42148 420.70242 425.62051 430.09637 432.73911 437.1748"
         y="-534.84003"
         sodipodi:role="line"
         id="tspan3464">Polar Coordinates</tspan></text>
<path
       inkscape:connector-curvature="0"
       id="path3468"
       style="fill:none;stroke:#000000;stroke-width:0.47999999;stroke-linecap:round;stroke-linejoin:round;stroke-miterlimit:10;stroke-opacity:1;stroke-dasharray:none"
       d="m 398.06,582.9 -0.36,3.48" /><path
       inkscape:connector-curvature="0"
       id="path3472"
       style="fill:none;stroke:#000000;stroke-width:0.47999999;stroke-linecap:round;stroke-linejoin:round;stroke-miterlimit:10;stroke-opacity:1;stroke-dasharray:none"
       d="m 397.58,588.54 -0.36,3.48" /><path
       inkscape:connector-curvature="0"
       id="path3476"
       style="fill:none;stroke:#000000;stroke-width:0.47999999;stroke-linecap:round;stroke-linejoin:round;stroke-miterlimit:10;stroke-opacity:1;stroke-dasharray:none"
       d="m 397.1,594.06 -0.36,3.48" /><path
       inkscape:connector-curvature="0"
       id="path3480"
       style="fill:none;stroke:#000000;stroke-width:0.47999999;stroke-linecap:round;stroke-linejoin:round;stroke-miterlimit:10;stroke-opacity:1;stroke-dasharray:none"
       d="m 396.5,599.82 -0.24,3.36" /><path
       inkscape:connector-curvature="0"
       id="path3484"
       style="fill:none;stroke:#000000;stroke-width:0.47999999;stroke-linecap:round;stroke-linejoin:round;stroke-miterlimit:10;stroke-opacity:1;stroke-dasharray:none"
       d="m 396.02,605.34 -0.36,3.48" /><path
       inkscape:connector-curvature="0"
       id="path3488"
       style="fill:none;stroke:#000000;stroke-width:0.47999999;stroke-linecap:round;stroke-linejoin:round;stroke-miterlimit:10;stroke-opacity:1;stroke-dasharray:none"
       d="m 395.54,610.98 -0.36,3.48" /><path
       inkscape:connector-curvature="0"
       id="path3492"
       style="fill:none;stroke:#000000;stroke-width:0.47999999;stroke-linecap:round;stroke-linejoin:round;stroke-miterlimit:10;stroke-opacity:1;stroke-dasharray:none"
       d="m 394.94,616.62 -0.24,3.36" /><path
       inkscape:connector-curvature="0"
       id="path3496"
       style="fill:none;stroke:#000000;stroke-width:0.47999999;stroke-linecap:round;stroke-linejoin:round;stroke-miterlimit:10;stroke-opacity:1;stroke-dasharray:none"
       d="m 394.46,622.14 -0.36,3.48" /><path
       inkscape:connector-curvature="0"
       id="path3500"
       style="fill:none;stroke:#000000;stroke-width:0.47999999;stroke-linecap:round;stroke-linejoin:round;stroke-miterlimit:10;stroke-opacity:1;stroke-dasharray:none"
       d="m 393.98,627.78 -0.36,3.48" /><path
       inkscape:connector-curvature="0"
       id="path3504"
       style="fill:none;stroke:#000000;stroke-width:0.47999999;stroke-linecap:round;stroke-linejoin:round;stroke-miterlimit:10;stroke-opacity:1;stroke-dasharray:none"
       d="m 393.5,633.42 -0.36,3.36" /><path
       inkscape:connector-curvature="0"
       id="path3508"
       style="fill:none;stroke:#000000;stroke-width:0.47999999;stroke-linecap:round;stroke-linejoin:round;stroke-miterlimit:10;stroke-opacity:1;stroke-dasharray:none"
       d="m 392.9,638.94 -0.24,3.48" /><path
       inkscape:connector-curvature="0"
       id="path3512"
       style="fill:none;stroke:#000000;stroke-width:0.47999999;stroke-linecap:round;stroke-linejoin:round;stroke-miterlimit:10;stroke-opacity:1;stroke-dasharray:none"
       d="m 392.42,644.58 -0.24,3.48" /><path
       inkscape:connector-curvature="0"
       id="path3516"
       style="fill:none;stroke:#000000;stroke-width:0.47999999;stroke-linecap:round;stroke-linejoin:round;stroke-miterlimit:10;stroke-opacity:1;stroke-dasharray:none"
       d="m 391.94,650.22 -0.24,3.48" /><path
       inkscape:connector-curvature="0"
       id="path3520"
       style="fill:none;stroke:#000000;stroke-width:0.47999999;stroke-linecap:round;stroke-linejoin:round;stroke-miterlimit:10;stroke-opacity:1;stroke-dasharray:none"
       d="m 391.46,655.86 -0.36,3.36" /><path
       inkscape:connector-curvature="0"
       id="path3524"
       style="fill:none;stroke:#000000;stroke-width:0.47999999;stroke-linecap:round;stroke-linejoin:round;stroke-miterlimit:10;stroke-opacity:1;stroke-dasharray:none"
       d="m 390.86,661.38 -0.36,3.48" /><path
       inkscape:connector-curvature="0"
       id="path3528"
       style="fill:none;stroke:#000000;stroke-width:0.47999999;stroke-linecap:round;stroke-linejoin:round;stroke-miterlimit:10;stroke-opacity:1;stroke-dasharray:none"
       d="m 390.38,667.02 -0.36,3.48" /><path
       inkscape:connector-curvature="0"
       id="path3532"
       style="fill:none;stroke:#000000;stroke-width:0.47999999;stroke-linecap:round;stroke-linejoin:round;stroke-miterlimit:10;stroke-opacity:1;stroke-dasharray:none"
       d="m 389.9,672.66 -0.36,3.36" /><path
       inkscape:connector-curvature="0"
       id="path3536"
       style="fill:none;stroke:#000000;stroke-width:0.47999999;stroke-linecap:round;stroke-linejoin:round;stroke-miterlimit:10;stroke-opacity:1;stroke-dasharray:none"
       d="m 389.3,678.18 -0.24,3.48" /><path
       inkscape:connector-curvature="0"
       id="path3540"
       style="fill:none;stroke:#000000;stroke-width:0.47999999;stroke-linecap:round;stroke-linejoin:round;stroke-miterlimit:10;stroke-opacity:1;stroke-dasharray:none"
       d="m 388.82,683.82 -0.24,3.48" /><path
       inkscape:connector-curvature="0"
       id="path3544"
       style="fill:none;stroke:#000000;stroke-width:0.47999999;stroke-linecap:round;stroke-linejoin:round;stroke-miterlimit:10;stroke-opacity:1;stroke-dasharray:none"
       d="m 388.34,689.46 -0.24,3.48" /><path
       inkscape:connector-curvature="0"
       id="path3548"
       style="fill:none;stroke:#000000;stroke-width:0.47999999;stroke-linecap:round;stroke-linejoin:round;stroke-miterlimit:10;stroke-opacity:1;stroke-dasharray:none"
       d="m 387.86,695.1 -0.36,3.36" /><path
       inkscape:connector-curvature="0"
       id="path3552"
       style="fill:none;stroke:#000000;stroke-width:0.47999999;stroke-linecap:round;stroke-linejoin:round;stroke-miterlimit:10;stroke-opacity:1;stroke-dasharray:none"
       d="m 387.26,700.62 0,0.84" /><path
       inkscape:connector-curvature="0"
       id="path3556"
       style="fill:none;stroke:#000000;stroke-width:0.47999999;stroke-linecap:round;stroke-linejoin:round;stroke-miterlimit:10;stroke-opacity:1;stroke-dasharray:none"
       d="m 368.9,616.02 0.36,-0.48 c 3.965,-3.347 18.331,-2.85 23.4,-3 l 2.64,0.12" /><path
       d="m 369.02,603.18 44.52,0 0,8.04 -44.52,0 0,-8.04 z"
       style="fill:#ffffff;fill-opacity:1;fill-rule:nonzero;stroke:none"
       id="path3558"
       inkscape:connector-curvature="0" /><text
       transform="scale(1,-1)"
       id="text3560"
       x="371.42001"
       y="-603.29999"><tspan
         style="font-size:6.96000004px;font-variant:normal;font-weight:normal;writing-mode:lr-tb;fill:#000000;fill-opacity:1;fill-rule:nonzero;stroke:none;font-family:Arial;-inkscape-font-specification:ArialMT"
         x="371.42001 376.09991 379.93765 383.77542 389.65244 391.57617 396.25607 400.09381 403.93158 405.61172"
         y="-603.29999"
         sodipodi:role="line"
         id="tspan3562">Beam Angle</tspan></text>
<path
       inkscape:connector-curvature="0"
       id="path3566"
       style="fill:none;stroke:#000000;stroke-width:0.47999999;stroke-linecap:round;stroke-linejoin:round;stroke-miterlimit:10;stroke-opacity:1;stroke-dasharray:none"
       d="m 391.34,656.34 -1.08,0.12 -0.96,0 -0.84,0.12 -0.72,0.24 -0.48,0 0,0.24" /><path
       d="m 388.58,644.94 44.52,0 0,8.04 -44.52,0 0,-8.04 z"
       style="fill:#ffffff;fill-opacity:1;fill-rule:nonzero;stroke:none"
       id="path3568"
       inkscape:connector-curvature="0" /><text
       transform="scale(1,-1)"
       id="text3570"
       x="390.98001"
       y="-645.06012"><tspan
         style="font-size:6.96000004px;font-variant:normal;font-weight:normal;writing-mode:lr-tb;fill:#000000;fill-opacity:1;fill-rule:nonzero;stroke:none;font-family:Arial;-inkscape-font-specification:ArialMT"
         x="390.98001 395.65436 397.23148 399.15244 402.63245 406.47159 408.39255 413.06689 417.02573 420.86487 422.42392"
         y="-645.06012"
         sodipodi:role="line"
         id="tspan3572">Pitch Angle</tspan></text>
<text
       transform="scale(1,-1)"
       id="text3574"
       x="346.09982"
       y="-602.94031"><tspan
         style="font-size:6.96000004px;font-variant:normal;font-weight:normal;writing-mode:lr-tb;fill:#000000;fill-opacity:1;fill-rule:nonzero;stroke:none;font-family:Arial;-inkscape-font-specification:ArialMT"
         x="346.09982 351.13885 354.98077 358.82269 362.78293"
         y="-602.94031"
         sodipodi:role="line"
         id="tspan3576">Range</tspan></text>
<text
       transform="scale(1,-1)"
       id="text3578"
       x="489.06"
       y="-522.78003"><tspan
         style="font-size:10.97999954px;font-variant:normal;font-weight:normal;writing-mode:lr-tb;fill:#000000;fill-opacity:1;fill-rule:nonzero;stroke:none;font-family:Calibri;-inkscape-font-specification:Calibri"
         x="489.06"
         y="-522.78003"
         id="tspan3580"> </tspan></text>
<text
       transform="scale(1,-1)"
       id="text3646"
       x="89.999588"
       y="-470.81931"><tspan
         style="font-size:10.97999954px;font-variant:normal;font-weight:normal;writing-mode:lr-tb;fill:#000000;fill-opacity:1;fill-rule:nonzero;stroke:none;font-family:Calibri;-inkscape-font-specification:Calibri"
         x="89.999588"
         y="-470.81931"
         id="tspan3648"> </tspan></text>
</g></svg>