<?xml version="1.0" encoding="UTF-8" standalone="no"?>
<!-- Created with Inkscape (http://www.inkscape.org/) -->

<svg
   xmlns:dc="http://purl.org/dc/elements/1.1/"
   xmlns:cc="http://creativecommons.org/ns#"
   xmlns:rdf="http://www.w3.org/1999/02/22-rdf-syntax-ns#"
   xmlns:svg="http://www.w3.org/2000/svg"
   xmlns="http://www.w3.org/2000/svg"
   xmlns:sodipodi="http://sodipodi.sourceforge.net/DTD/sodipodi-0.dtd"
   xmlns:inkscape="http://www.inkscape.org/namespaces/inkscape"
   id="svg3004"
   version="1.1"
   inkscape:version="0.48.5 r10040"
   width="514.125"
   height="373.20013"
   xml:space="preserve"
   sodipodi:docname="figure-3-2.pdf"><metadata
     id="metadata3010"><rdf:RDF><cc:Work
         rdf:about=""><dc:format>image/svg+xml</dc:format><dc:type
           rdf:resource="http://purl.org/dc/dcmitype/StillImage" /><dc:title></dc:title></cc:Work></rdf:RDF></metadata><defs
     id="defs3008"><clipPath
       clipPathUnits="userSpaceOnUse"
       id="clipPath3020"><path
         d="M 9,9 603,9 603,783 9,783 9,9 z"
         id="path3022"
         inkscape:connector-curvature="0" /></clipPath><clipPath
       clipPathUnits="userSpaceOnUse"
       id="clipPath4418"><path
         d="m 0,720 612,0 0,-285 -612,0 0,285 z"
         clip-rule="evenodd"
         id="path4420"
         inkscape:connector-curvature="0" /></clipPath><clipPath
       clipPathUnits="userSpaceOnUse"
       id="clipPath4424"><path
         d="m 0,792.03 612,0 0,-792 -612,0 0,792 z"
         id="path4426"
         inkscape:connector-curvature="0" /></clipPath><clipPath
       clipPathUnits="userSpaceOnUse"
       id="clipPath4430"><path
         d="M 9,9 603,9 603,783 9,783 9,9 z"
         id="path4432"
         inkscape:connector-curvature="0" /></clipPath><clipPath
       clipPathUnits="userSpaceOnUse"
       id="clipPath4440"><path
         d="M 9,9 603,9 603,783 9,783 9,9 z"
         id="path4442"
         inkscape:connector-curvature="0" /></clipPath></defs><sodipodi:namedview
     pagecolor="#ffffff"
     bordercolor="#666666"
     borderopacity="1"
     objecttolerance="10"
     gridtolerance="10"
     guidetolerance="10"
     inkscape:pageopacity="0"
     inkscape:pageshadow="2"
     inkscape:window-width="1266"
     inkscape:window-height="796"
     id="namedview3006"
     showgrid="false"
     fit-margin-top="0"
     fit-margin-left="0"
     fit-margin-right="0"
     fit-margin-bottom="0"
     inkscape:zoom="0.54949495"
     inkscape:cx="270"
     inkscape:cy="-63.75"
     inkscape:window-x="0"
     inkscape:window-y="0"
     inkscape:window-maximized="0"
     inkscape:current-layer="g3012" /><g
     id="g3012"
     inkscape:groupmode="layer"
     inkscape:label="figure-3-2"
     transform="matrix(1.25,0,0,-1.25,-112.5,931.95015)"><g
       id="g3014" /><text
       transform="scale(1,-1)"
       id="text3024"
       x="90"
       y="-745.56012"><tspan
         style="font-size:10.97999954px;font-variant:normal;font-weight:normal;writing-mode:lr-tb;fill:#000000;fill-opacity:1;fill-rule:nonzero;stroke:none;font-family:Calibri;-inkscape-font-specification:Calibri"
         x="90"
         y="-745.56012"
         id="tspan3026"> </tspan></text>
<text
       transform="scale(1,-1)"
       id="text3142"
       x="501.2399"
       y="-447.06"><tspan
         style="font-size:10.97999954px;font-variant:normal;font-weight:normal;writing-mode:lr-tb;fill:#000000;fill-opacity:1;fill-rule:nonzero;stroke:none;font-family:Calibri;-inkscape-font-specification:Calibri"
         x="501.2399"
         y="-447.06"
         id="tspan3144"> </tspan></text>
<g
       id="g4414"><g
         id="g4416"
         clip-path="url(#clipPath4418)"><g
           id="g4422"
           clip-path="url(#clipPath4424)"><g
             id="g4428"
             clip-path="url(#clipPath4430)"><path
               d="m 90,447 411.3,0 0,273 -411.3,0 0,-273 z"
               style="fill:#ffffff;fill-opacity:1;fill-rule:nonzero;stroke:none"
               id="path4434"
               inkscape:connector-curvature="0" /></g></g></g></g><g
       id="g4436"><g
         id="g4438"
         clip-path="url(#clipPath4440)"><g
           id="g4444"
           transform="translate(179.7,711.48)"><path
             d="m 0,0 237.9,-59.76 -68.22,-40.8 -244.02,64.2 L 0,0 z"
             style="fill:#ffffff;fill-opacity:1;fill-rule:evenodd;stroke:#000000;stroke-width:0.36000001;stroke-linecap:round;stroke-linejoin:round;stroke-miterlimit:10;stroke-opacity:1;stroke-dasharray:none"
             id="path4446"
             inkscape:connector-curvature="0" /></g><g
           id="g4448"
           transform="translate(215.88,684.84)"><path
             d="m 0,0 0,-9.12 18.72,-8.64 16.2,-6.12 19.2,-3.84 22.8,-3.96 18.78,0.72 5.64,23.52 -21,-2.64 -5.7,0 -4.68,-5.76 -12.36,0 L 42,-12.6 20.04,-6.48 0,0 z"
             style="fill:#33cccc;fill-opacity:1;fill-rule:evenodd;stroke:#000000;stroke-width:0.47999999;stroke-linecap:round;stroke-linejoin:round;stroke-miterlimit:10;stroke-opacity:1;stroke-dasharray:none"
             id="path4450"
             inkscape:connector-curvature="0" /></g><g
           id="g4452"
           transform="translate(279.48,689.64)"><path
             d="M 0,0 -10.08,2.04 3.6,6.12 14.7,3.96 0,0 z"
             style="fill:#ffffff;fill-opacity:1;fill-rule:evenodd;stroke:#000000;stroke-width:0.36000001;stroke-linecap:round;stroke-linejoin:round;stroke-miterlimit:10;stroke-opacity:1;stroke-dasharray:none"
             id="path4454"
             inkscape:connector-curvature="0" /></g><g
           id="g4456"
           transform="translate(247.32,678.96)"><path
             d="m 0,0 0,12.72 -21.72,5.76 0,-11.64 21.48,-7.08 11.64,2.52 0,13.68 L 0,12.72"
             style="fill:none;stroke:#000000;stroke-width:0.36000001;stroke-linecap:round;stroke-linejoin:round;stroke-miterlimit:10;stroke-opacity:1;stroke-dasharray:none"
             id="path4458"
             inkscape:connector-curvature="0" /></g><g
           id="g4460"
           transform="translate(236.04,699.72)"><path
             d="m 0,0 22.32,-5.04 -10.92,-3 -22.08,6 L 0,0 z"
             style="fill:#ffffff;fill-opacity:1;fill-rule:evenodd;stroke:#000000;stroke-width:0.36000001;stroke-linecap:round;stroke-linejoin:round;stroke-miterlimit:10;stroke-opacity:1;stroke-dasharray:none"
             id="path4462"
             inkscape:connector-curvature="0" /></g><path
           d="m 227.52,682.68 0.96,-0.36 10.56,25.2 -0.48,0.24 -0.36,-0.36 0.72,0 -0.72,0 6.12,-9.72 0.84,0.6 -6.12,9.72 -0.12,0.12 -0.36,0.24 -0.36,-0.24 -0.12,-0.12 -10.56,-25.32"
           style="fill:#000000;fill-opacity:1;fill-rule:evenodd;stroke:none"
           id="path4464"
           inkscape:connector-curvature="0" /><path
           d="m 268.56,685.32 1.08,0 0,32.4 -1.08,0 0,-32.4 z"
           style="fill:#000000;fill-opacity:1;fill-rule:evenodd;stroke:none"
           id="path4466"
           inkscape:connector-curvature="0" /><path
           d="m 262.92,713.4 0.24,-0.96 11.76,2.64 -0.24,0.96 -11.76,-2.64"
           style="fill:#000000;fill-opacity:1;fill-rule:evenodd;stroke:none"
           id="path4468"
           inkscape:connector-curvature="0" /><path
           d="m 215.88,685.8 0.36,-0.96 9.36,3.36 -0.36,0.96 -9.36,-3.36"
           style="fill:#000000;fill-opacity:1;fill-rule:evenodd;stroke:none"
           id="path4470"
           inkscape:connector-curvature="0" /><g
           id="g4472"
           transform="translate(241.08,663.96)"><path
             d="M 0,0 -15.72,2.28"
             style="fill:none;stroke:#000000;stroke-width:0.36000001;stroke-linecap:round;stroke-linejoin:round;stroke-miterlimit:10;stroke-opacity:1;stroke-dasharray:none"
             id="path4474"
             inkscape:connector-curvature="0" /></g><g
           id="g4476"
           transform="translate(209.7,673.2)"><path
             d="M 0,0 16.14,-3.6"
             style="fill:none;stroke:#000000;stroke-width:0.36000001;stroke-linecap:round;stroke-linejoin:round;stroke-miterlimit:10;stroke-opacity:1;stroke-dasharray:none"
             id="path4478"
             inkscape:connector-curvature="0" /></g><g
           id="g4480"
           transform="translate(273.48,653.52)"><path
             d="M 0,0 19.08,-0.72"
             style="fill:none;stroke:#000000;stroke-width:0.36000001;stroke-linecap:round;stroke-linejoin:round;stroke-miterlimit:10;stroke-opacity:1;stroke-dasharray:none"
             id="path4482"
             inkscape:connector-curvature="0" /></g><g
           id="g4484"
           transform="translate(260.76,656.16)"><path
             d="M 0,0 13.92,-0.36"
             style="fill:none;stroke:#000000;stroke-width:0.36000001;stroke-linecap:round;stroke-linejoin:round;stroke-miterlimit:10;stroke-opacity:1;stroke-dasharray:none"
             id="path4486"
             inkscape:connector-curvature="0" /></g><g
           id="g4488"
           transform="translate(235.92,660.96)"><path
             d="M 0,0 19.44,-1.68"
             style="fill:none;stroke:#000000;stroke-width:0.36000001;stroke-linecap:round;stroke-linejoin:round;stroke-miterlimit:10;stroke-opacity:1;stroke-dasharray:none"
             id="path4490"
             inkscape:connector-curvature="0" /></g><g
           id="g4492"
           transform="translate(279.24,682.08)"><path
             d="M 0,0 -0.12,7.56 15.3,11.52 15.3,5.04 0,0 z"
             style="fill:#ffffff;fill-opacity:1;fill-rule:evenodd;stroke:#000000;stroke-width:0.36000001;stroke-linecap:round;stroke-linejoin:round;stroke-miterlimit:10;stroke-opacity:1;stroke-dasharray:none"
             id="path4494"
             inkscape:connector-curvature="0" /></g><g
           id="g4496"
           transform="translate(269.04,691.68)"><path
             d="m 0,0 -0.36,-10.8 10.56,-2.16 0,10.92 L 0,0 z"
             style="fill:#ffffff;fill-opacity:1;fill-rule:evenodd;stroke:#000000;stroke-width:0.36000001;stroke-linecap:round;stroke-linejoin:round;stroke-miterlimit:10;stroke-opacity:1;stroke-dasharray:none"
             id="path4498"
             inkscape:connector-curvature="0" /></g><g
           id="g4500"
           transform="translate(276.48,680.88)"><path
             d="m 0,0 0,-8.64 23.34,7.44 0,8.64 L 0,0 z"
             style="fill:#33cccc;fill-opacity:1;fill-rule:evenodd;stroke:#000000;stroke-width:0.47999999;stroke-linecap:round;stroke-linejoin:round;stroke-miterlimit:10;stroke-opacity:1;stroke-dasharray:none"
             id="path4502"
             inkscape:connector-curvature="0" /></g><g
           id="g4504"
           transform="translate(278.88,682.2)"><path
             d="M 0,0 -10.08,2.4"
             style="fill:none;stroke:#000000;stroke-width:0.36000001;stroke-linecap:round;stroke-linejoin:round;stroke-miterlimit:10;stroke-opacity:1;stroke-dasharray:none"
             id="path4506"
             inkscape:connector-curvature="0" /></g><g
           id="g4508"
           transform="translate(268.68,684.84)"><path
             d="m 0,0 -0.36,10.44 -6.24,0 -6.12,1.2 0.12,-11.16 6.36,-1.8 L 0,0 z"
             style="fill:#33cccc;fill-opacity:1;fill-rule:evenodd;stroke:#000000;stroke-width:0.47999999;stroke-linecap:round;stroke-linejoin:round;stroke-miterlimit:10;stroke-opacity:1;stroke-dasharray:none"
             id="path4510"
             inkscape:connector-curvature="0" /></g><g
           id="g4512"
           transform="translate(268.08,695.76)"><path
             d="m 0,0 -4.8,1.56 -2.76,0 L -12,0.72"
             style="fill:none;stroke:#000000;stroke-width:0.36000001;stroke-linecap:round;stroke-linejoin:round;stroke-miterlimit:10;stroke-opacity:1;stroke-dasharray:none"
             id="path4514"
             inkscape:connector-curvature="0" /></g><path
           d="m 316.74,677.28 0.24,1.08 -16.92,4.2 -0.24,-0.96 16.92,-4.32"
           style="fill:#000000;fill-opacity:1;fill-rule:evenodd;stroke:none"
           id="path4516"
           inkscape:connector-curvature="0" /><g
           id="g4518"
           transform="translate(253.8,678.36)"><path
             d="m 0,0 22.68,-6.36 0,8.76 L 0,7.44 0,0 z"
             style="fill:#ffffff;fill-opacity:1;fill-rule:evenodd;stroke:#000000;stroke-width:0.47999999;stroke-linecap:round;stroke-linejoin:round;stroke-miterlimit:10;stroke-opacity:1;stroke-dasharray:none"
             id="path4520"
             inkscape:connector-curvature="0" /></g><g
           id="g4522"
           transform="translate(299.22,688.92)"><path
             d="M 0,0 -4.32,0.36"
             style="fill:none;stroke:#000000;stroke-width:0.36000001;stroke-linecap:round;stroke-linejoin:round;stroke-miterlimit:10;stroke-opacity:1;stroke-dasharray:none"
             id="path4524"
             inkscape:connector-curvature="0" /></g><path
           d="m 123.96,620.04 0.96,-0.12 0.36,2.28 -0.48,0.12 0.48,-0.24 1.08,2.04 -0.48,0.24 0.36,-0.36 1.8,1.8 -0.36,0.36 0.36,-0.48 2.22,1.56 -0.36,0.48 0.24,-0.48 2.88,1.2 -0.24,0.48 0.12,-0.48 3,0.84 -0.12,0.48 0,-0.6 3.12,0.12 3.24,-0.12 0,0.6 -0.12,-0.48 3,-0.84 0.12,0.48 -0.24,-0.48 2.52,-1.2 0.24,0.48 -0.24,-0.48 2.28,-1.56 0.24,0.48 -0.36,-0.36 1.68,-1.8 0.36,0.36 -0.36,-0.24 1.08,-2.04 0.36,0.24 -0.6,-0.12 0.48,-2.28 0.48,0.12 -0.48,0 -0.48,-2.04 0.6,0 -0.36,0.24 -1.08,-2.28 0.36,-0.24 -0.36,0.36 -1.68,-1.8 0.36,-0.36 -0.24,0.36 -2.28,-1.56 0.24,-0.36 -0.12,0.6 -2.52,-1.2 0.12,-0.36 -0.12,0.36 -3,-0.6 0.12,-0.6 0,0.6 -3.24,-0.36 0,-0.48 0.12,0.48 -3.12,0.36 -0.12,-0.6 0.12,0.6 -3,0.6 -0.12,-0.36 0.24,0.36 -2.88,1.2 -0.24,-0.6 0.36,0.36 -2.22,1.56 -0.36,-0.36 0.36,0.36 -1.8,1.8 -0.36,-0.36 0.48,0.24 -1.08,2.28 -0.48,-0.24 0.48,0 -0.36,2.04 -0.96,-0.12 0.36,-2.04 0.12,-0.12 1.08,-2.28 0,-0.12 1.8,-1.8 0.12,0 2.22,-1.56 0.12,0 2.88,-1.2 3,-0.6 0.12,-0.24 3.12,-0.12 3.24,0.12 0.12,0.24 c 4.373,0.424 9.538,3.118 10.92,7.56 l 0,0.24 0,-0.12 0.36,2.04 0,0.12 -0.36,2.28 0,0.24 -1.08,2.04 -0.12,0.12 -1.68,1.8 -2.28,1.56 -0.12,0 -2.52,1.2 -0.12,0.12 -3,0.84 -0.12,0 -3.24,0.12 c -5.03,0.417 -12.671,-2.708 -14.46,-7.8 l -0.12,-0.24 -0.36,-2.28"
           style="fill:#000000;fill-opacity:1;fill-rule:evenodd;stroke:none"
           id="path4526"
           inkscape:connector-curvature="0" /><g
           id="g4528"
           transform="translate(134.58,626.88)"><path
             d="M 0,0 -9.06,-4.08 -5.16,3.96 0,0 z"
             style="fill:#000000;fill-opacity:1;fill-rule:evenodd;stroke:#000000;stroke-width:1.08000004;stroke-linecap:round;stroke-linejoin:round;stroke-miterlimit:10;stroke-opacity:1;stroke-dasharray:none"
             id="path4530"
             inkscape:connector-curvature="0" /></g><path
           d="m 121.08,611.64 11.46,0 0,9.36 -11.46,0 0,-9.36 z"
           style="fill:#ffffff;fill-opacity:1;fill-rule:nonzero;stroke:none"
           id="path4532"
           inkscape:connector-curvature="0" /><path
           d="m 130.02,625.08 -0.12,0.96 -1.98,-0.36 0.12,-0.96 1.98,0.36"
           style="fill:#000000;fill-opacity:1;fill-rule:evenodd;stroke:none"
           id="path4534"
           inkscape:connector-curvature="0" /><path
           d="m 233.52,500.4 0.96,-0.24 0.36,1.56 -0.48,0.12 0.48,-0.36 1.2,1.44 -0.48,0.36 0.36,-0.48 1.68,1.08 -0.36,0.48 0.24,-0.48 2.16,1.08 -0.24,0.48 0.24,-0.48 2.64,0.96 -0.24,0.48 0.12,-0.48 3.24,0.6 -0.12,0.48 0.12,-0.6 3.36,0.36 -0.12,0.6 0,-0.6 3.36,0 0,0.6 0,-0.6 3.36,-0.36 0,0.6 -0.24,-0.48 3,-0.6 0.24,0.48 -0.24,-0.48 2.76,-0.96 0.24,0.48 -0.36,-0.48 2.28,-1.08 0.24,0.48 -0.24,-0.48 1.68,-1.08 0.24,0.48 -0.36,-0.36 1.08,-1.44 0.36,0.36 -0.48,-0.12 0.24,-1.56 0.48,0.12 -0.48,0.12 -0.24,-1.32 0.48,-0.12 -0.36,0.24 -1.08,-1.44 0.36,-0.24 -0.24,0.36 -1.68,-1.32 0.24,-0.36 -0.24,0.36 -2.28,-1.08 0.36,-0.36 -0.24,0.48 -2.76,-0.72 0.24,-0.48 0,0.48 -3,-0.6 0,-0.48 0,0.48 -3.36,-0.36 0,-0.48 0,0.48 -3.36,0 0,-0.48 0.12,0.48 -3.36,0.36 -0.12,-0.48 0.12,0.48 -3.24,0.6 -0.12,-0.48 0.12,0.48 -2.64,0.72 -0.12,-0.48 0.24,0.36 -2.16,1.08 -0.24,-0.36 0.36,0.36 -1.68,1.32 -0.36,-0.36 0.48,0.36 -1.2,1.44 -0.48,-0.36 0.48,0.12 -0.36,1.32 -0.96,-0.24 0.36,-1.32 c 1.706,-2.849 4.96,-4.454 8.16,-4.92 l 3.24,-0.6 0,-0.12 3.36,-0.36 3.48,0 3.24,0.36 0,0.12 3,0.6 c 3.073,0.571 6.531,1.794 8.16,4.68 l 0,0.36 0,-0.12 0.24,1.32 0.12,0.12 -0.24,1.56 -0.12,0.24 -1.08,1.44 -0.12,0.12 -1.68,1.08 -0.12,0.12 -2.28,1.08 -2.76,0.96 -0.12,0 -3,0.6 -3.24,0.36 -3.48,0 -3.36,-0.36 -3.24,-0.6 -0.12,0 -2.64,-0.96 -0.12,-0.12 -2.16,-1.08 -1.68,-1.08 -0.12,0 -1.2,-1.44 -0.12,-0.36 0,0.12 -0.36,-1.56"
           style="fill:#000000;fill-opacity:1;fill-rule:evenodd;stroke:none"
           id="path4536"
           inkscape:connector-curvature="0" /><path
           d="m 244.56,503.88 10.44,0 0,8.52 -10.44,0 0,-8.52 z"
           style="fill:#ffffff;fill-opacity:1;fill-rule:nonzero;stroke:none"
           id="path4538"
           inkscape:connector-curvature="0" /><path
           d="m 401.28,623.04 0.96,-0.12 0.24,3.12 -0.6,0.12 0.6,-0.12 0.6,3 -0.48,0.12 0.48,-0.24 0.96,2.64 -0.48,0.24 0.48,-0.24 1.2,2.4 -0.6,0.24 0.36,-0.36 1.56,1.56 -0.36,0.36 0.36,-0.48 1.8,1.32 -0.36,0.48 0.24,-0.48 1.68,0.84 -0.24,0.36 0,-0.6 1.92,0 0,0.6 -0.24,-0.36 1.8,-0.84 0.24,0.48 -0.24,-0.48 1.68,-1.32 0.24,0.48 -0.36,-0.36 1.68,-1.56 0.36,0.36 -0.48,-0.24 1.08,-2.4 0.96,-2.64 0.48,0.24 -0.48,-0.12 0.6,-3 0.48,0.12 -0.48,-0.12 0.24,-3.12 0.48,0.12 -0.48,0 -0.24,-3 0.48,0 -0.48,0.12 -0.6,-3 0.48,-0.12 -0.48,0.12 -0.96,-2.76 0.48,-0.12 -0.36,0.24 -1.08,-2.16 0.36,-0.24 -0.36,0.48 -1.68,-2.04 0.36,-0.36 -0.24,0.36 -1.68,-1.2 0.24,-0.36 -0.12,0.36 -1.8,-0.6 0.12,-0.36 0,0.36 -1.92,0 0,-0.36 0.24,0.36 -1.68,0.6 -0.24,-0.36 0.36,0.36 -1.8,1.2 -0.36,-0.36 0.48,0.36 -1.44,2.04 -0.6,-0.48 0.6,0.24 -1.2,2.16 -0.48,-0.24 0.48,0.12 -0.96,2.76 -0.48,-0.12 0.48,0.12 -0.6,3 -0.6,-0.12 0.6,0 -0.24,3 -0.96,-0.12 0.12,-3 0.84,-3 0,-0.12 0.84,-2.64 0.12,0 1.08,-2.16 0,-0.24 1.56,-1.8 0.12,-0.12 1.8,-1.44 0.12,0 1.68,-0.6 2.16,0 1.8,0.6 0.24,0 1.68,1.44 0,0.12 1.68,1.8 0.12,0.24 1.08,2.16 0,0.12 0,-0.12 0.96,2.64 0,0.12 0.6,3 0.12,0 0.24,3 0,0.12 -0.24,3.12 -0.12,0.12 -0.6,3 -0.96,2.64 -1.08,2.4 -0.12,0.24 -1.68,1.56 -1.68,1.32 -0.12,0.12 -1.8,0.84 -2.16,0 -1.92,-0.96 -1.8,-1.32 -0.12,0 -1.56,-1.56 0,-0.24 -1.08,-2.4 -0.12,-0.12 0,0.12 -0.84,-2.64 -0.84,-3 0,-0.12 -0.12,-3.12"
           style="fill:#000000;fill-opacity:1;fill-rule:evenodd;stroke:none"
           id="path4540"
           inkscape:connector-curvature="0" /><path
           d="m 413.4,616.8 10.56,0 0,8.76 -10.56,0 0,-8.76 z"
           style="fill:#ffffff;fill-opacity:1;fill-rule:nonzero;stroke:none"
           id="path4542"
           inkscape:connector-curvature="0" /><path
           d="m 250.56,665.28 -0.36,-1.68 177.72,-45 0.48,1.68 -177.84,45"
           style="fill:#000000;fill-opacity:1;fill-rule:evenodd;stroke:none"
           id="path4544"
           inkscape:connector-curvature="0" /><path
           d="m 436.8,617.4 -12.72,-2.64 1.68,2.28 1.08,2.88 0.36,2.88 -0.36,3 9.96,-8.4"
           style="fill:#000000;fill-opacity:1;fill-rule:evenodd;stroke:none"
           id="path4546"
           inkscape:connector-curvature="0" /><path
           d="m 249.6,480.96 1.8,0 0.12,183.36 -1.8,0 -0.12,-183.36"
           style="fill:#000000;fill-opacity:1;fill-rule:evenodd;stroke:none"
           id="path4548"
           inkscape:connector-curvature="0" /><path
           d="m 250.44,472.2 -5.76,11.4 3,-1.2 2.76,-0.24 2.88,0.24 2.76,1.2 -5.64,-11.4"
           style="fill:#000000;fill-opacity:1;fill-rule:evenodd;stroke:none"
           id="path4550"
           inkscape:connector-curvature="0" /><path
           d="m 250.8,663.6 -0.84,1.68 -131.64,-52.08 0.72,-1.68 131.76,52.08"
           style="fill:#000000;fill-opacity:1;fill-rule:evenodd;stroke:none"
           id="path4552"
           inkscape:connector-curvature="0" /><path
           d="m 110.4,609.24 9,9.48 0,-3 0.6,-3 1.44,-2.52 2.04,-2.16 -13.08,1.2"
           style="fill:#000000;fill-opacity:1;fill-rule:evenodd;stroke:none"
           id="path4554"
           inkscape:connector-curvature="0" /><g
           id="g4556"
           transform="translate(234.96,506.64)"><path
             d="M 0,0 9.72,0.6 2.4,-4.68 0,0 z"
             style="fill:#000000;fill-opacity:1;fill-rule:evenodd;stroke:#000000;stroke-width:1.08000004;stroke-linecap:round;stroke-linejoin:round;stroke-miterlimit:10;stroke-opacity:1;stroke-dasharray:none"
             id="path4558"
             inkscape:connector-curvature="0" /></g><g
           id="g4560"
           transform="translate(413.04,611.52)"><path
             d="M 0,0 6,5.16 3.96,-2.52 0,0 z"
             style="fill:#000000;fill-opacity:1;fill-rule:evenodd;stroke:#000000;stroke-width:1.08000004;stroke-linecap:round;stroke-linejoin:round;stroke-miterlimit:10;stroke-opacity:1;stroke-dasharray:none"
             id="path4562"
             inkscape:connector-curvature="0" /></g><text
           transform="matrix(1,0,0,-1,98.88,604.6801)"
           id="text4564"><tspan
             style="font-size:18px;font-variant:normal;font-weight:normal;writing-mode:lr-tb;fill:#000000;fill-opacity:1;fill-rule:nonzero;stroke:none;font-family:Arial;-inkscape-font-specification:ArialMT"
             x="0"
             y="0"
             id="tspan4566">y</tspan></text>
<text
           transform="matrix(1,0,0,-1,245.6394,456.2395)"
           id="text4568"><tspan
             style="font-size:18px;font-variant:normal;font-weight:normal;writing-mode:lr-tb;fill:#000000;fill-opacity:1;fill-rule:nonzero;stroke:none;font-family:Arial;-inkscape-font-specification:ArialMT"
             x="0"
             y="0"
             id="tspan4570">z</tspan></text>
<text
           transform="matrix(1,0,0,-1,438.5994,608.1595)"
           id="text4572"><tspan
             style="font-size:18px;font-variant:normal;font-weight:normal;writing-mode:lr-tb;fill:#000000;fill-opacity:1;fill-rule:nonzero;stroke:none;font-family:Arial;-inkscape-font-specification:ArialMT"
             x="0"
             y="0"
             id="tspan4574">x</tspan></text>
<path
           d="m 499.92,588.36 -216.12,0 0,-93.06 216.12,0 0,93.06 z"
           style="fill:none;stroke:#000000;stroke-width:1.08000004;stroke-linecap:round;stroke-linejoin:miter;stroke-miterlimit:10;stroke-opacity:1;stroke-dasharray:none"
           id="path4576"
           inkscape:connector-curvature="0" /><text
           transform="matrix(1,0,0,-1,317.94,559.26)"
           id="text4578"><tspan
             style="font-size:12px;font-variant:normal;font-weight:normal;writing-mode:lr-tb;fill:#000000;fill-opacity:1;fill-rule:nonzero;stroke:none;font-family:Arial;-inkscape-font-specification:ArialMT"
             x="0 8.0352001 14.7384 20.7696 23.4048 26.771999 29.4072 35.282398 41.997601 45.364799 52.068001 58.771198 65.474403 72.177597 74.812798 81.528 85.4832 88.850403 98.805603 105.5088 112.212 118.2432 124.9464 128.7816 135.4848"
             y="0"
             sodipodi:role="line"
             id="tspan4580">Positive angular measures</tspan></text>
<text
           transform="matrix(1,0,0,-1,290.04,536.34)"
           id="text4582"><tspan
             style="font-size:9px;font-variant:normal;font-weight:normal;writing-mode:lr-tb;fill:#000000;fill-opacity:1;fill-rule:nonzero;stroke:none;font-family:Arial;-inkscape-font-specification:ArialMT"
             x="0 6.5331001 11.5722 13.6053 78.1614 84.199501 86.736603 91.775703 94.8078 99.846901 104.886 109.9251 112.8042 117.8433 120.3624 124.7985 126.8406 131.8797 136.91879 139.32091 146.853 151.89211 156.3282 161.36729 165.80341 168.3855 173.42461 178.4637 184.82581"
             y="0"
             sodipodi:role="line"
             id="tspan4584">RollStarboard side moves down</tspan></text>
<text
           transform="matrix(1,0,0,-1,290.04,525.2997)"
           id="text4586"><tspan
             style="font-size:9px;font-variant:normal;font-weight:normal;writing-mode:lr-tb;fill:#000000;fill-opacity:1;fill-rule:nonzero;stroke:none;font-family:Arial;-inkscape-font-specification:ArialMT"
             x="0 6.0416999 8.0783997 10.6191 15.1578 78.1605 84.157204 89.253899 95.610603 98.133301 105.669 110.7117 115.1514 120.1851 122.7078 127.7505"
             y="0"
             sodipodi:role="line"
             id="tspan4588">PitchBow move up</tspan></text>
<text
           transform="matrix(1,0,0,-1,290.04,514.1397)"
           id="text4590"><tspan
             style="font-size:9px;font-variant:normal;font-weight:normal;writing-mode:lr-tb;fill:#000000;fill-opacity:1;fill-rule:nonzero;stroke:none;font-family:Arial;-inkscape-font-specification:ArialMT"
             x="0 6.5286002 11.5632 16.597799 21.632401 23.660999 28.5786 33.613201 36.136799 41.171398 44.199001 46.722599 52.603199 57.637798 78.152397 84.150002 89.247597 93.805199 98.245796 103.2804 105.309 107.8326 110.3652 115.2828 118.3104 123.345 127.8756 130.27319 132.8058 137.84039 140.23801 144.7686 147.30119 152.3358 155.3634 160.28101 165.3156 170.41319 173.4138"
             y="0"
             sodipodi:role="line"
             id="tspan4592">Heading or YawVessel turns to starboard</tspan></text>
</g></g></g></svg>