<?xml version="1.0" encoding="UTF-8" standalone="no"?>
<!-- Created with Inkscape (http://www.inkscape.org/) -->

<svg
   xmlns:dc="http://purl.org/dc/elements/1.1/"
   xmlns:cc="http://creativecommons.org/ns#"
   xmlns:rdf="http://www.w3.org/1999/02/22-rdf-syntax-ns#"
   xmlns:svg="http://www.w3.org/2000/svg"
   xmlns="http://www.w3.org/2000/svg"
   xmlns:sodipodi="http://sodipodi.sourceforge.net/DTD/sodipodi-0.dtd"
   xmlns:inkscape="http://www.inkscape.org/namespaces/inkscape"
   id="svg15361"
   version="1.1"
   inkscape:version="0.48.5 r10040"
   width="428.39999"
   height="534.52515"
   xml:space="preserve"
   sodipodi:docname="figure-4-7.pdf"><metadata
     id="metadata15367"><rdf:RDF><cc:Work
         rdf:about=""><dc:format>image/svg+xml</dc:format><dc:type
           rdf:resource="http://purl.org/dc/dcmitype/StillImage" /><dc:title></dc:title></cc:Work></rdf:RDF></metadata><defs
     id="defs15365"><clipPath
       clipPathUnits="userSpaceOnUse"
       id="clipPath15377"><path
         d="M 9,9 603,9 603,783 9,783 9,9 z"
         id="path15379"
         inkscape:connector-curvature="0" /></clipPath><clipPath
       clipPathUnits="userSpaceOnUse"
       id="clipPath16611"><path
         d="m 0,720 612,0 0,-414.06 -612,0 L 0,720 z"
         clip-rule="evenodd"
         id="path16613"
         inkscape:connector-curvature="0" /></clipPath><clipPath
       clipPathUnits="userSpaceOnUse"
       id="clipPath16617"><path
         d="m 0,792.03 612,0 0,-792 -612,0 0,792 z"
         id="path16619"
         inkscape:connector-curvature="0" /></clipPath><clipPath
       clipPathUnits="userSpaceOnUse"
       id="clipPath16623"><path
         d="M 9,9 603,9 603,783 9,783 9,9 z"
         id="path16625"
         inkscape:connector-curvature="0" /></clipPath><clipPath
       clipPathUnits="userSpaceOnUse"
       id="clipPath16633"><path
         d="M 9,9 603,9 603,783 9,783 9,9 z"
         id="path16635"
         inkscape:connector-curvature="0" /></clipPath><clipPath
       clipPathUnits="userSpaceOnUse"
       id="clipPath16689"><path
         d="m 232.14,654.24 99.48,0 0,12.84 -99.48,0 0,-12.84 z"
         id="path16691"
         inkscape:connector-curvature="0" /></clipPath><clipPath
       clipPathUnits="userSpaceOnUse"
       id="clipPath16701"><path
         d="M 9,9 603,9 603,783 9,783 9,9 z"
         id="path16703"
         inkscape:connector-curvature="0" /></clipPath><clipPath
       clipPathUnits="userSpaceOnUse"
       id="clipPath16717"><path
         d="m 232.14,608.64 99.48,0 0,12.84 -99.48,0 0,-12.84 z"
         id="path16719"
         inkscape:connector-curvature="0" /></clipPath><clipPath
       clipPathUnits="userSpaceOnUse"
       id="clipPath16729"><path
         d="M 9,9 603,9 603,783 9,783 9,9 z"
         id="path16731"
         inkscape:connector-curvature="0" /></clipPath><clipPath
       clipPathUnits="userSpaceOnUse"
       id="clipPath16761"><path
         d="m 232.14,503.58 99.48,0 0,12.84 -99.48,0 0,-12.84 z"
         id="path16763"
         inkscape:connector-curvature="0" /></clipPath><clipPath
       clipPathUnits="userSpaceOnUse"
       id="clipPath16773"><path
         d="M 9,9 603,9 603,783 9,783 9,9 z"
         id="path16775"
         inkscape:connector-curvature="0" /></clipPath></defs><sodipodi:namedview
     pagecolor="#ffffff"
     bordercolor="#666666"
     borderopacity="1"
     objecttolerance="10"
     gridtolerance="10"
     guidetolerance="10"
     inkscape:pageopacity="0"
     inkscape:pageshadow="2"
     inkscape:window-width="1222"
     inkscape:window-height="771"
     id="namedview15363"
     showgrid="false"
     fit-margin-top="0"
     fit-margin-left="0"
     fit-margin-right="0"
     fit-margin-bottom="0"
     inkscape:zoom="0.47676768"
     inkscape:cx="270"
     inkscape:cy="65.894053"
     inkscape:window-x="0"
     inkscape:window-y="0"
     inkscape:window-maximized="0"
     inkscape:current-layer="g15369" /><g
     id="g15369"
     inkscape:groupmode="layer"
     inkscape:label="figure-4-7"
     transform="matrix(1.25,0,0,-1.25,-112.5,931.95015)"><text
       transform="scale(1,-1)"
       id="text15381"
       x="90"
       y="-745.56012"><tspan
         style="font-size:10.97999954px;font-variant:normal;font-weight:normal;writing-mode:lr-tb;fill:#000000;fill-opacity:1;fill-rule:nonzero;stroke:none;font-family:Calibri;-inkscape-font-specification:Calibri"
         x="90"
         y="-745.56012"
         id="tspan15383"> </tspan></text>
<text
       transform="scale(1,-1)"
       id="text15499"
       x="432.72"
       y="-318"><tspan
         style="font-size:10.97999954px;font-variant:normal;font-weight:normal;writing-mode:lr-tb;fill:#000000;fill-opacity:1;fill-rule:nonzero;stroke:none;font-family:Calibri;-inkscape-font-specification:Calibri"
         x="432.72"
         y="-318"
         id="tspan15501"> </tspan></text>
<g
       id="g16615"
       clip-path="url(#clipPath16617)"><g
         id="g16621"
         clip-path="url(#clipPath16623)"><path
           d="m 161.28,317.94 271.32,0 0,402.06 -271.32,0 0,-402.06 z"
           style="fill:#ffffff;fill-opacity:1;fill-rule:nonzero;stroke:none"
           id="path16627"
           inkscape:connector-curvature="0" /></g></g><path
       d="m 203.46,318.9 193.86,0 0,94.44 -193.86,0 0,-94.44 z"
       style="fill:#9a9a9a;fill-opacity:1;fill-rule:nonzero;stroke:none"
       id="path16637"
       inkscape:connector-curvature="0" /><text
       transform="scale(1,-1)"
       id="text16639"
       x="219.53999"
       y="-704.82001"><tspan
         style="font-size:12.00160027px;font-variant:normal;font-weight:normal;writing-mode:lr-tb;fill:#000000;fill-opacity:1;fill-rule:nonzero;stroke:none;font-family:Arial;-inkscape-font-specification:ArialMT"
         x="219.53999 227.58827 233.63228 240.34837 242.98393 249.70003 253.05566 260.43185 267.14795 273.02393 276.37958 283.09567 287.05139 290.40704 298.3233 305.0394 311.75549 318.47159 324.34756 331.06366 335.01938 341.73547 345.09113 353.1394 356.51907 360.35477 367.07086 373.11487 376.49454 383.21063 387.16635"
         y="-704.82001"
         sodipodi:role="line"
         id="tspan16641">Scale Factor Subecord Structure</tspan></text>
<path
       d="m 234.9,467.22 163.5,0 0,221.22 -163.5,0 0,-221.22 z"
       style="fill:#9a9a9a;fill-opacity:1;fill-rule:nonzero;stroke:none"
       id="path16643"
       inkscape:connector-curvature="0" /><path
       d="m 389.4,697.44 -163.5,0 0,-221.4 163.5,0 0,221.4 z"
       style="fill:#ffffff;fill-opacity:1;fill-rule:evenodd;stroke:#000000;stroke-width:0.72000003;stroke-linecap:round;stroke-linejoin:miter;stroke-miterlimit:10;stroke-opacity:1;stroke-dasharray:none"
       id="path16645"
       inkscape:connector-curvature="0" /><g
       id="g16647"
       transform="translate(225.9,683.16)"><path
         d="M 0,0 162.36,0"
         style="fill:none;stroke:#000000;stroke-width:0.72000003;stroke-linecap:round;stroke-linejoin:round;stroke-miterlimit:10;stroke-opacity:1;stroke-dasharray:none"
         id="path16649"
         inkscape:connector-curvature="0" /></g><text
       transform="scale(1,-1)"
       id="text16651"
       x="229.86"
       y="-684.90002"><tspan
         style="font-size:12.00160027px;font-variant:normal;font-weight:normal;writing-mode:lr-tb;fill:#000000;fill-opacity:1;fill-rule:nonzero;stroke:none;font-family:Arial;-inkscape-font-specification:ArialMT"
         x="229.86 236.5773 243.29459 250.01189 253.36873 257.32565 265.30313 272.02042 278.7377 282.69464 289.41193 295.28912 302.00641 305.96335 312.68063 316.03748 319.41833 326.01562 332.73291 339.4502 342.83105 345.34778 348.82465 351.4614 358.17871 362.13562"
         y="-684.90002"
         sodipodi:role="line"
         id="tspan16653">100 (Subrecord Identifier)</tspan></text>
<text
       transform="scale(1,-1)"
       id="text16655"
       x="229.86"
       y="-670.62048"><tspan
         style="font-size:12.00160027px;font-variant:normal;font-weight:normal;writing-mode:lr-tb;fill:#000000;fill-opacity:1;fill-rule:nonzero;stroke:none;font-family:Arial;-inkscape-font-specification:ArialMT"
         x="229.86 238.49756 245.21484 255.24458 261.94989 268.65518 272.61209 275.96893 282.56622 286.04309 289.27991 297.31738 303.35059 310.05588 312.69263 319.39792 322.75479 330.01215 336.72946 342.76263 346.1315 352.83679 356.79373"
         y="-670.62048"
         sodipodi:role="line"
         id="tspan16657">Number of Scale Factors</tspan></text>
<text
       transform="scale(1,-1)"
       id="text16659"
       x="195.53999"
       y="-421.56"><tspan
         style="font-size:6.0007px;font-variant:normal;font-weight:bold;writing-mode:lr-tb;fill:#000000;fill-opacity:1;fill-rule:nonzero;stroke:none;font-family:Arial;-inkscape-font-specification:Arial-BoldMT"
         x="195.53999 198.89919 386.45587"
         y="-421.56"
         sodipodi:role="line"
         id="tspan16661">310</tspan></text>
<text
       transform="scale(1,-1)"
       id="text16663"
       x="275.1597"
       y="-430.55981"><tspan
         style="font-size:6.0007px;font-variant:normal;font-weight:bold;writing-mode:lr-tb;fill:#000000;fill-opacity:1;fill-rule:nonzero;stroke:none;font-family:Arial;-inkscape-font-specification:Arial-BoldMT"
         x="275.1597 279.48502 281.146 283.18503 284.86404 289.18933 292.78854 298.06796 301.7872 305.14639"
         y="-430.55981"
         sodipodi:role="line"
         id="tspan16665">Bit Number</tspan></text>
<text
       transform="scale(1,-1)"
       id="text16667"
       x="192.96001"
       y="-442.79999"><tspan
         style="font-size:9.00119972px;font-variant:normal;font-weight:bold;writing-mode:lr-tb;fill:#000000;fill-opacity:1;fill-rule:nonzero;stroke:none;font-family:Arial;-inkscape-font-specification:Arial-BoldMT"
         x="192.96001 198.9926 204.02608 209.05954 211.59068 216.62416 219.14629 224.54881 229.58229 234.61575 237.64195 243.1705 246.64676 249.1689 255.52554 259.0018 262.47806 267.8176"
         y="-442.79999"
         sodipodi:role="line"
         id="tspan16669">Scale Factor Array</tspan></text>
<g
       id="g16671"
       transform="translate(239.46,422.22)"><path
         d="M 0,0 0.12,-31.44"
         style="fill:none;stroke:#000000;stroke-width:0.72000003;stroke-linecap:round;stroke-linejoin:round;stroke-miterlimit:10;stroke-opacity:1;stroke-dasharray:none"
         id="path16673"
         inkscape:connector-curvature="0" /></g><path
       d="m 391.5,404.34 9.54,4.56 -0.72,-1.8 -0.36,-1.8 0,-1.92 0.36,-1.92 0.72,-1.8 -9.54,4.68"
       style="fill:#000000;fill-opacity:1;fill-rule:evenodd;stroke:none"
       id="path16675"
       inkscape:connector-curvature="0" /><g
       id="g16677"
       transform="translate(225.9,668.88)"><path
         d="M 0,0 162.36,0"
         style="fill:none;stroke:#000000;stroke-width:0.72000003;stroke-linecap:round;stroke-linejoin:round;stroke-miterlimit:10;stroke-opacity:1;stroke-dasharray:none"
         id="path16679"
         inkscape:connector-curvature="0" /></g><text
       transform="scale(1,-1)"
       id="text16681"
       x="232.14"
       y="-656.34003"><tspan
         style="font-size:12.00160027px;font-variant:normal;font-weight:normal;writing-mode:lr-tb;fill:#000000;fill-opacity:1;fill-rule:nonzero;stroke:none;font-family:Arial;-inkscape-font-specification:ArialMT"
         x="232.14 240.18828 246.23228 252.94838 255.58392 262.30002 265.65567 273.03186 279.74796 285.62393 288.97958 295.69568 299.6514 303.00705 311.05533 315.01105 318.96677"
         y="-656.34003"
         sodipodi:role="line"
         id="tspan16683">Scale Factor Arra</tspan></text>
<text
       transform="scale(1,-1)"
       id="text16693"
       x="325.67999"
       y="-656.34003"><tspan
         style="font-size:12.00160027px;font-variant:normal;font-weight:normal;writing-mode:lr-tb;fill:#000000;fill-opacity:1;fill-rule:nonzero;stroke:none;font-family:Arial;-inkscape-font-specification:ArialMT"
         x="325.67999"
         y="-656.34003"
         id="tspan16695">y</tspan></text>
<g
       id="g16705"
       transform="translate(225.9,623.28)"><path
         d="M 0,0 162.36,0"
         style="fill:none;stroke:#000000;stroke-width:0.72000003;stroke-linecap:round;stroke-linejoin:round;stroke-miterlimit:10;stroke-opacity:1;stroke-dasharray:none"
         id="path16707"
         inkscape:connector-curvature="0" /></g><text
       transform="scale(1,-1)"
       id="text16709"
       x="232.14"
       y="-610.73999"><tspan
         style="font-size:12.00160027px;font-variant:normal;font-weight:normal;writing-mode:lr-tb;fill:#000000;fill-opacity:1;fill-rule:nonzero;stroke:none;font-family:Arial;-inkscape-font-specification:ArialMT"
         x="232.14 240.18828 246.23228 252.94838 255.58392 262.30002 265.65567 273.03186 279.74796 285.62393 288.97958 295.69568 299.6514 303.00705 311.05533 315.01105 318.96677"
         y="-610.73999"
         sodipodi:role="line"
         id="tspan16711">Scale Factor Arra</tspan></text>
<text
       transform="scale(1,-1)"
       id="text16721"
       x="325.67999"
       y="-610.73999"><tspan
         style="font-size:12.00160027px;font-variant:normal;font-weight:normal;writing-mode:lr-tb;fill:#000000;fill-opacity:1;fill-rule:nonzero;stroke:none;font-family:Arial;-inkscape-font-specification:ArialMT"
         x="325.67999"
         y="-610.73999"
         id="tspan16723">y</tspan></text>
<g
       id="g16733"
       transform="translate(225.9,581.28)"><path
         d="M 0,0 162.36,-0.12"
         style="fill:none;stroke:#000000;stroke-width:0.72000003;stroke-linecap:round;stroke-linejoin:round;stroke-miterlimit:10;stroke-opacity:1;stroke-dasharray:none"
         id="path16735"
         inkscape:connector-curvature="0" /></g><text
       transform="scale(1,-1)"
       id="text16737"
       x="245.58659"
       y="-564.29999"><tspan
         style="font-size:12.00160027px;font-variant:normal;font-weight:normal;writing-mode:lr-tb;fill:#000000;fill-opacity:1;fill-rule:nonzero;stroke:none;font-family:Arial;-inkscape-font-specification:ArialMT"
         x="245.58659"
         y="-564.29999"
         id="tspan16739">.</tspan></text>
<text
       transform="scale(1,-1)"
       id="text16741"
       x="245.58659"
       y="-552.29962"><tspan
         style="font-size:12.00160027px;font-variant:normal;font-weight:normal;writing-mode:lr-tb;fill:#000000;fill-opacity:1;fill-rule:nonzero;stroke:none;font-family:Arial;-inkscape-font-specification:ArialMT"
         x="245.58659"
         y="-552.29962"
         id="tspan16743">.</tspan></text>
<text
       transform="scale(1,-1)"
       id="text16745"
       x="245.58659"
       y="-540.29919"><tspan
         style="font-size:12.00160027px;font-variant:normal;font-weight:normal;writing-mode:lr-tb;fill:#000000;fill-opacity:1;fill-rule:nonzero;stroke:none;font-family:Arial;-inkscape-font-specification:ArialMT"
         x="245.58659"
         y="-540.29919"
         id="tspan16747">.</tspan></text>
<g
       id="g16749"
       transform="translate(225.9,518.34)"><path
         d="M 0,0 162.36,-0.12"
         style="fill:none;stroke:#000000;stroke-width:0.72000003;stroke-linecap:round;stroke-linejoin:round;stroke-miterlimit:10;stroke-opacity:1;stroke-dasharray:none"
         id="path16751"
         inkscape:connector-curvature="0" /></g><text
       transform="scale(1,-1)"
       id="text16753"
       x="232.14"
       y="-505.67999"><tspan
         style="font-size:12.00160027px;font-variant:normal;font-weight:normal;writing-mode:lr-tb;fill:#000000;fill-opacity:1;fill-rule:nonzero;stroke:none;font-family:Arial;-inkscape-font-specification:ArialMT"
         x="232.14 240.18828 246.23228 252.94838 255.58392 262.30002 265.65567 273.03186 279.74796 285.62393 288.97958 295.69568 299.6514 303.00705 311.05533 315.01105 318.96677"
         y="-505.67999"
         sodipodi:role="line"
         id="tspan16755">Scale Factor Arra</tspan></text>
<text
       transform="scale(1,-1)"
       id="text16765"
       x="325.67999"
       y="-505.67999"><tspan
         style="font-size:12.00160027px;font-variant:normal;font-weight:normal;writing-mode:lr-tb;fill:#000000;fill-opacity:1;fill-rule:nonzero;stroke:none;font-family:Arial;-inkscape-font-specification:ArialMT"
         x="325.67999"
         y="-505.67999"
         id="tspan16767">y</tspan></text>
<path
       d="m 388.32,422.22 -193.86,0 0,-94.38 193.86,0 0,94.38 z"
       style="fill:#ffffff;fill-opacity:1;fill-rule:evenodd;stroke:#000000;stroke-width:0.72000003;stroke-linecap:round;stroke-linejoin:miter;stroke-miterlimit:10;stroke-opacity:1;stroke-dasharray:none"
       id="path16777"
       inkscape:connector-curvature="0" /><path
       d="m 388.32,390.78 -193.86,0 0,-31.5 193.86,0 0,31.5 z"
       style="fill:#ffffff;fill-opacity:1;fill-rule:evenodd;stroke:#000000;stroke-width:0.72000003;stroke-linecap:round;stroke-linejoin:miter;stroke-miterlimit:10;stroke-opacity:1;stroke-dasharray:none"
       id="path16779"
       inkscape:connector-curvature="0" /><g
       id="g16781"
       transform="translate(243.9,422.22)"><path
         d="M 0,0 0.12,-31.44"
         style="fill:none;stroke:#000000;stroke-width:0.72000003;stroke-linecap:round;stroke-linejoin:round;stroke-miterlimit:10;stroke-opacity:1;stroke-dasharray:none"
         id="path16783"
         inkscape:connector-curvature="0" /></g><g
       id="g16785"
       transform="translate(293.64,422.22)"><path
         d="M 0,0 0,-31.44"
         style="fill:none;stroke:#000000;stroke-width:0.72000003;stroke-linecap:round;stroke-linejoin:round;stroke-miterlimit:10;stroke-opacity:1;stroke-dasharray:none"
         id="path16787"
         inkscape:connector-curvature="0" /></g><text
       transform="scale(1,-1)"
       id="text16789"
       x="244.98"
       y="-421.56"><tspan
         style="font-size:6.0007px;font-variant:normal;font-weight:bold;writing-mode:lr-tb;fill:#000000;fill-opacity:1;fill-rule:nonzero;stroke:none;font-family:Arial;-inkscape-font-specification:Arial-BoldMT"
         x="244.98 248.33919 294.71741 298.0766"
         y="-421.56"
         sodipodi:role="line"
         id="tspan16791">2315</tspan></text>
<text
       transform="scale(1,-1)"
       id="text16793"
       x="167.52"
       y="-401.39999"><tspan
         style="font-size:6.0007px;font-variant:normal;font-weight:bold;writing-mode:lr-tb;fill:#000000;fill-opacity:1;fill-rule:nonzero;stroke:none;font-family:Arial;-inkscape-font-specification:Arial-BoldMT"
         x="167.52 173.16066 176.88109 179.16136 182.88179 186.24219"
         y="-401.39999"
         sodipodi:role="line"
         id="tspan16795">Word 0</tspan></text>
<text
       transform="scale(1,-1)"
       id="text16797"
       x="167.52"
       y="-372.12021"><tspan
         style="font-size:6.0007px;font-variant:normal;font-weight:bold;writing-mode:lr-tb;fill:#000000;fill-opacity:1;fill-rule:nonzero;stroke:none;font-family:Arial;-inkscape-font-specification:Arial-BoldMT"
         x="167.52 173.16066 176.88109 179.16136 182.88179 186.24219"
         y="-372.12021"
         sodipodi:role="line"
         id="tspan16799">Word 1</tspan></text>
<text
       transform="scale(1,-1)"
       id="text16801"
       x="167.52"
       y="-340.8002"><tspan
         style="font-size:6.0007px;font-variant:normal;font-weight:bold;writing-mode:lr-tb;fill:#000000;fill-opacity:1;fill-rule:nonzero;stroke:none;font-family:Arial;-inkscape-font-specification:Arial-BoldMT"
         x="167.52 173.16066 176.88109 179.16136 182.88179 186.24219"
         y="-340.8002"
         sodipodi:role="line"
         id="tspan16803">Word 2</tspan></text>
<text
       transform="scale(1,-1)"
       id="text16805"
       x="205.6196"
       y="-407.82019"><tspan
         style="font-size:6.0007px;font-variant:normal;font-weight:normal;writing-mode:lr-tb;fill:#000000;fill-opacity:1;fill-rule:nonzero;stroke:none;font-family:Arial;-inkscape-font-specification:ArialMT"
         x="205.6196 209.9671 213.3185 216.33385 219.68524 221.69847 225.04987 226.73306 228.41626"
         y="-407.82019"
         sodipodi:role="line"
         id="tspan16807">Record ID</tspan></text>
<text
       transform="scale(1,-1)"
       id="text16809"
       x="202.85989"
       y="-400.73999"><tspan
         style="font-size:6.0007px;font-variant:normal;font-weight:normal;writing-mode:lr-tb;fill:#000000;fill-opacity:1;fill-rule:nonzero;stroke:none;font-family:Arial;-inkscape-font-specification:ArialMT"
         x="202.85989 204.5407 207.88969 209.57048 212.91948 216.26846 217.94926 220.96222 223.97516 227.21614 228.65691 232.0179"
         y="-400.73999"
         sodipodi:role="line"
         id="tspan16811">to be scaled</tspan></text>
<text
       transform="scale(1,-1)"
       id="text16813"
       x="253.1398"
       y="-407.82019"><tspan
         style="font-size:6.0007px;font-variant:normal;font-weight:normal;writing-mode:lr-tb;fill:#000000;fill-opacity:1;fill-rule:nonzero;stroke:none;font-family:Arial;-inkscape-font-specification:ArialMT"
         x="253.1398 257.4747 261.01151 265.80847 269.16528 271.20792 274.5647 277.56744 280.57019 282.00677 285.34555"
         y="-407.82019"
         sodipodi:role="line"
         id="tspan16815">Compression</tspan></text>
<text
       transform="scale(1,-1)"
       id="text16817"
       x="264.9599"
       y="-400.73999"><tspan
         style="font-size:6.0007px;font-variant:normal;font-weight:normal;writing-mode:lr-tb;fill:#000000;fill-opacity:1;fill-rule:nonzero;stroke:none;font-family:Arial;-inkscape-font-specification:ArialMT"
         x="264.9599 268.68094 270.00168 273.36267"
         y="-400.73999"
         sodipodi:role="line"
         id="tspan16819">Flag</tspan></text>
<text
       transform="scale(1,-1)"
       id="text16821"
       x="321.1199"
       y="-404.21979"><tspan
         style="font-size:6.0007px;font-variant:normal;font-weight:normal;writing-mode:lr-tb;fill:#000000;fill-opacity:1;fill-rule:nonzero;stroke:none;font-family:Arial;-inkscape-font-specification:ArialMT"
         x="321.1199 325.44519 328.86441 331.85754 335.21674 337.25577 340.25494 343.61414"
         y="-404.21979"
         sodipodi:role="line"
         id="tspan16823">Reserved</tspan></text>
<text
       transform="scale(1,-1)"
       id="text16825"
       x="263.76041"
       y="-372.29971"><tspan
         style="font-size:6.0007px;font-variant:normal;font-weight:normal;writing-mode:lr-tb;fill:#000000;fill-opacity:1;fill-rule:nonzero;stroke:none;font-family:Arial;-inkscape-font-specification:ArialMT"
         x="263.76041 267.72028 270.72 274.0798 275.39935 276.83893 280.19873 283.5585 285.2381 290.15808 293.39786 294.83743 296.397 297.83658 301.07635 302.3959 303.83548 307.19528"
         y="-372.29971"
         sodipodi:role="line"
         id="tspan16827">Scaling Multiplier</tspan></text>
<text
       transform="scale(1,-1)"
       id="text16829"
       x="267.9603"
       y="-341.45969"><tspan
         style="font-size:6.0007px;font-variant:normal;font-weight:normal;writing-mode:lr-tb;fill:#000000;fill-opacity:1;fill-rule:nonzero;stroke:none;font-family:Arial;-inkscape-font-specification:ArialMT"
         x="267.9603 271.92017 274.91992 278.27371 279.62326 281.06284 284.41663 287.77042 289.45001 294.13596 295.82156 297.50714 300.38687 303.74066"
         y="-341.45969"
         sodipodi:role="line"
         id="tspan16831">Scaling Offset</tspan></text>
<path
       d="m 391.5,647.88 0,-2.16 36.18,0 0,1.08 -1.08,0 0.12,-0.36 0.24,-0.36 0.36,-0.24 -0.72,0.96 0,-242.46 1.08,0 0,1.08 -0.36,-0.12 -0.36,-0.24 -0.24,-0.36 0.96,0.72 -28.92,0 0,-2.16 28.92,0 0.36,0.12 0.36,0.24 0.24,0.36 0.12,0.36 0,242.46 -0.12,0.36 -0.24,0.36 -0.36,0.24 -0.36,0.12"
       style="fill:#000000;fill-opacity:1;fill-rule:nonzero;stroke:none"
       id="path16833"
       inkscape:connector-curvature="0" /></g></svg>